<?xml version="1.0" encoding="UTF-8"?>
<svg id="Layer_3" data-name="Layer 3" xmlns="http://www.w3.org/2000/svg" viewBox="0 0 300.43 170.1">
  <defs>
    <style>
      .cls-1 {
        fill: #9e8346;
      }

      .cls-2 {
        fill: #3b302e;
      }
    </style>
  </defs>
  <path class="cls-2" d="M4.46,104.88c-.12-4.71-.42-6.21-4.46-6.45v-.06c3.26-.24,6.57-.36,11.4-.18,7.06,.24,9.83,3.74,9.83,8.08,0,4.83-3.32,7.6-6.51,8.81,6.57,.9,10.01,4.71,10.19,9.71,.3,6.88-5.19,10.8-12.31,10.8-2.77,0-4.89-.66-6.7-.66-.9,0-3.32,.24-5.13,.24v-.06c3.14-.48,3.44-.72,3.68-6.63,.12-2.9,.18-8.75,.18-10.74,0-4.28-.06-8.51-.18-12.85Zm5.91-5.67c-1.27-.06-2.77-.06-3.44,0,.54,.36,.9,1.33,1.03,4.89,.06,1.93,.06,7.96,.06,11.28,.66-.18,1.93-.24,2.84-.24,1.63,0,2.59-.06,3.32-.36,2.11-.9,3.62-3.08,3.8-6.33,.3-5.25-2.23-8.87-7.6-9.23Zm.36,17.07h-2.71c0,2.71-.06,7.66-.06,10.62,0,1.69,.06,3.62,.12,4.64,.06,1.21,.18,1.39,1.09,1.93,1.15,.72,2.77,1.03,4.89,1.03,4.4,0,7.3-3.5,7.42-8.2,.12-6.03-4.04-10.01-10.74-10.01Z"/>
  <path class="cls-2" d="M37.76,134.86c-1.27,0-3.8,.3-5.79,.3v-.06c3.2-.36,4.28-.9,4.4-6.7,.12-3.8,.12-8.69,.12-10.74,0-4.71-.06-10.98-.12-13.03-.12-4.95-.78-6.27-4.46-6.57v-.06c2.05,0,5.73,.3,6.51,.3,1.21,0,2.77-.3,4.04-.3v.06c-2.05,.3-2.41,1.03-2.47,3.8-.12,4.4-.12,7.66-.18,14.36,0,4.34,.06,10.56,.12,13.57,.06,3.38,.54,3.38,5.19,3.5h3.8c4.64,0,6.45-.6,7.12-5.61h.06c.06,1.87-.3,4.64-.54,5.37-.54,1.63-1.39,2.17-3.26,2.17-6.15,0-6.88-.36-14.54-.36Z"/>
  <path class="cls-2" d="M78.12,136.01c-11.82,0-15.26-5.61-15.26-17.85,0-5.07,.18-11.16,.12-13.21-.18-5.97-1.15-6.51-4.46-6.88v-.06c1.87,0,4.7,.3,6.39,.3,.9,0,2.23-.3,4.16-.3v.06c-2.11,.3-2.41,1.03-2.59,6.88-.06,1.81-.18,8.44-.18,13.63,0,9.71,1.93,16.23,11.94,16.23s12.06-7.18,12.06-16.71c0-2.59,.06-9.29-.12-14.96-.12-4.04-1.09-4.83-3.62-5.07v-.06c1.69,0,4.28,.24,5.31,.24s2.29-.24,3.8-.24v.06c-1.51,.3-2.29,1.63-2.41,5.07-.12,4.58-.18,10.92-.18,14.3,0,12-4.4,18.58-14.96,18.58Z"/>
  <path class="cls-2" d="M107.79,104.82c-.12-5.01-.18-6.51-4.58-6.76v-.06c2.77,0,5.55,.3,7.54,.3,3.8-.06,7.54-.3,10.01-.3,2.77,0,3.86-.3,3.5,2.71-.18,1.51-.66,2.96-.84,4.22h-.06c.18-2.41,.18-4.77-2.9-4.95-2.96-.18-6.09-.24-9.47-.18,.3,.18,.3,3.02,.3,3.74v11.28h4.89c1.27,0,3.26-.06,4.7-.18,2.29-.18,2.65-.3,2.17,2.29-.18,1.03-.48,1.99-.72,2.71h-.06c.36-2.17-.6-2.96-3.8-3.14-2.17-.12-6.15-.3-7.18-.3-.06,2.96,0,9.41,.12,13.21,.12,3.74,.72,3.86,3.86,3.86h6.39c4.89,0,5.19-4.34,5.43-6.51h.06c0,1.93,.12,4.89-.42,6.51-.42,1.27-1.03,1.93-3.32,1.93-3.02,0-4.16-.36-13.93-.36-1.33,0-4.04,.3-6.09,.3v-.06c3.2-.36,4.28-.9,4.4-6.7,.18-7.78,.24-15.32,0-23.58Z"/>
  <path class="cls-2" d="M218.48,99.75c.84-2.05,1.27-2.71,1.69-2.71,.24,0,.06,.54,.84,2.9,1.87,5.37,3.92,11.34,5.85,16.65,1.63,4.4,3.38,9.41,5.37,13.81,1.51,3.32,1.99,4.28,5.55,4.7v.06c-2.41-.12-2.96,.12-5.25,.12-2.96,0-3.5-1.63-4.16-3.68-.84-2.77-2.65-8.08-4.04-11.94-1.51,.3-3.86,.66-6.39,.72-1.99,.06-4.04,0-5.73-.12-.9,2.41-2.41,7.54-3.32,10.74-1.03,3.62,.72,3.86,2.71,4.1v.06c-1.63,.06-4.1-.36-4.83-.36-1.63,0-3.98,.36-5.91,.36v-.06c2.11-.24,3.08-.12,4.83-3.68,1.57-3.2,3.74-8.75,5.67-13.63,2.17-5.25,4.28-11.16,7.12-18.04Zm.24,3.32c-.72,1.99-2.29,5.97-3.26,8.51-1.15,3.02-2.29,5.91-2.65,7,1.51,.12,3.44,.24,5.37,.24,2.23,0,4.83-.06,5.79-.12-2.53-7.48-5.19-14.36-5.25-15.62Z"/>
  <path class="cls-2" d="M244.48,114.71c-2.23-5.13-3.98-9.05-5.91-13.09-1.09-2.29-2.17-3.26-5.55-3.56v-.06c2.53,0,5.55,.3,6.39,.3,1.69,0,4.77-.3,7.06-.3v.06c-3.38,.18-4.58,1.39-3.92,3.32,1.33,3.74,2.77,7.48,4.89,12.31,1.57,3.56,4.52,10.13,7,15.44,1.87-4.16,4.58-10.8,6.57-15.86,1.57-3.86,2.96-7.66,4.04-10.98,1.03-3.26,.48-3.92-2.9-4.22v-.06c1.57,0,4.46,.3,5.31,.3,1.21,0,3.74-.3,5.49-.3v.06c-2.9,.24-3.86,1.69-5.49,5.13-2.23,4.77-3.44,7.66-5.07,11.4-4.04,9.53-6.57,15.32-8.57,20.39-.06,.18-.18,.48-.3,.48s-.24-.3-.36-.54c-1.21-2.83-6.45-15.08-8.69-20.21Z"/>
  <path class="cls-2" d="M280.07,104.82c-.12-5.01-.18-6.51-4.58-6.76v-.06c2.77,0,5.55,.3,7.54,.3,3.8-.06,7.54-.3,10.01-.3,2.77,0,3.86-.3,3.5,2.71-.18,1.51-.66,2.96-.84,4.22h-.06c.18-2.41,.18-4.77-2.9-4.95-2.96-.18-6.09-.24-9.47-.18,.3,.18,.3,3.02,.3,3.74v11.28h4.89c1.27,0,3.26-.06,4.7-.18,2.29-.18,2.65-.3,2.17,2.29-.18,1.03-.48,1.99-.72,2.71h-.06c.36-2.17-.6-2.96-3.8-3.14-2.17-.12-6.15-.3-7.18-.3-.06,2.96,0,9.41,.12,13.21,.12,3.74,.72,3.86,3.86,3.86h6.39c4.89,0,5.19-4.34,5.43-6.51h.06c0,1.93,.12,4.89-.42,6.51-.42,1.27-1.03,1.93-3.32,1.93-3.02,0-4.16-.36-13.93-.36-1.33,0-4.04,.3-6.09,.3v-.06c3.2-.36,4.28-.9,4.4-6.7,.18-7.78,.24-15.32,0-23.58Z"/>
  <g>
    <path class="cls-2" d="M9.26,156.57c0-2.59-.67-3.29-2.66-3.29h-2.42v-1.16h2.73c2.8,0,3.83,1,3.83,4.33v5.21h-1.49v-5.09Z"/>
    <path class="cls-2" d="M21.28,153.28h-1.21v8.38h-1.49v-8.38h-4.75v-1.16h7.46v1.16Z"/>
    <path class="cls-2" d="M24.94,157.52v-5.41h1.49v5.41h-1.49Z"/>
    <path class="cls-2" d="M34.87,156.57c0-2.59-.67-3.29-2.66-3.29h-2.42v-1.16h2.73c2.8,0,3.83,1,3.83,4.33v5.21h-1.49v-5.09Z"/>
    <path class="cls-2" d="M47.97,156.17v1.43c0,2.91-1.03,4.05-3.7,4.05h-3.77v-1.16h3.48c1.89,0,2.51-.89,2.51-3.04v-1.15c0-2.15-.62-3.04-2.51-3.04h-2.05v3.85h-1.43v-5.01h3.77c2.67,0,3.7,1.14,3.7,4.05Z"/>
    <path class="cls-2" d="M58.21,161.66l-3.9-5.58c-.84,.16-1.22,.75-1.22,1.75v3.83h-1.48v-3.82c0-1.45,.7-2.46,2.05-2.69l-2.11-3.04h1.53l3.61,5.15c.86-.14,1.27-.64,1.27-1.72v-3.43h1.48v3.5c0,1.65-.89,2.4-2.07,2.64l2.39,3.4h-1.54Z"/>
    <path class="cls-2" d="M77.14,160.49v1.16h-8.01v-1.16h5.23v-7.22h-5.23v-1.16h6.73v8.38h1.29Z"/>
    <path class="cls-2" d="M84.33,153.28h-5.14v-2.75h1.43v1.59h5.61l-3.53,9.54h-1.56l3.18-8.38Z"/>
    <path class="cls-2" d="M97.12,160.49v1.16h-8.01v-1.16h5.23v-7.22h-5.23v-1.16h6.73v8.38h1.29Z"/>
    <path class="cls-2" d="M114.95,156.19v5.47h-1.49v-5.34c0-2.34-.76-3.04-2.4-3.04h-1.96v8.38h-3.39v-1.16h1.96v-7.22h-1.42v-1.16h5.12c2.45,0,3.58,1,3.58,4.07Z"/>
    <path class="cls-2" d="M119.23,161.66v-9.54h1.49v9.54h-1.49Z"/>
    <path class="cls-2" d="M131.71,153.28h-1.21v8.38h-1.49v-8.38h-4.75v-1.16h7.46v1.16Z"/>
    <path class="cls-2" d="M134.55,161.66h-.54v-1.16h.54c1.94,0,2.7-1.33,2.48-3.2l-.46-4.02h-1.86v-1.16h3.08l1.3,9.54h-1.43l-.29-2.31h-.06c-.27,1.43-1.21,2.31-2.77,2.31Z"/>
    <path class="cls-2" d="M148.9,161.66l-3.9-5.58c-.84,.16-1.22,.75-1.22,1.75v3.83h-1.48v-3.82c0-1.45,.7-2.46,2.05-2.69l-2.11-3.04h1.53l3.61,5.15c.86-.14,1.27-.64,1.27-1.72v-3.43h1.48v3.5c0,1.65-.89,2.4-2.07,2.64l2.38,3.4h-1.54Z"/>
    <path class="cls-2" d="M161.81,161.66h-1.49v-8.38h-6.3v-1.16h7.79v9.54Zm-6.23-5.58v5.58h-1.49v-5.58h1.49Z"/>
    <path class="cls-2" d="M173.81,156.62v5.04h-4.44v-1.16h2.94v-3.85c0-2.54-.7-3.37-2.59-3.37h-1.1l-1.46,8.38h-1.51l1.51-8.38h-1.45v-1.16h4.26c2.72,0,3.83,1.18,3.83,4.5Z"/>
    <path class="cls-2" d="M192.06,155.66v5.99h-7.84v-9.54h4.82c2.19,0,3.02,.89,3.02,3.55Zm-1.46,.24c0-2.04-.53-2.62-1.96-2.62h-2.96v7.22h4.91v-4.59Z"/>
    <path class="cls-2" d="M196.09,157.52v-5.41h1.49v5.41h-1.49Z"/>
    <path class="cls-2" d="M206.02,156.57c0-2.59-.67-3.29-2.66-3.29h-2.42v-1.16h2.73c2.8,0,3.83,1,3.83,4.33v5.21h-1.5v-5.09Z"/>
    <path class="cls-2" d="M211.81,161.66v-9.54h1.49v9.54h-1.49Z"/>
    <path class="cls-2" d="M217.03,161.66h-.54v-1.16h.54c1.94,0,2.7-1.33,2.48-3.2l-.46-4.02h-1.86v-1.16h3.08l1.3,9.54h-1.43l-.29-2.31h-.06c-.27,1.43-1.21,2.31-2.77,2.31Z"/>
    <path class="cls-2" d="M232.7,156.62v5.04h-4.44v-1.16h2.94v-3.85c0-2.54-.7-3.37-2.59-3.37h-1.1l-1.46,8.38h-1.51l1.51-8.38h-1.45v-1.16h4.26c2.72,0,3.83,1.18,3.83,4.5Z"/>
    <path class="cls-2" d="M245.93,161.66h-2.35l-1.08-9.54h1.48l.94,8.38h1.02c2.62,0,3.48-1.08,3.48-4.09v-3.13h-2.8v-1.16h4.28v4.29c0,3.86-1.51,5.25-4.96,5.25Z"/>
    <path class="cls-2" d="M262.43,156.17v1.43c0,2.91-1.03,4.05-3.7,4.05h-3.77v-1.16h3.48c1.89,0,2.51-.89,2.51-3.04v-1.15c0-2.15-.62-3.04-2.51-3.04h-2.05v3.85h-1.43v-5.01h3.77c2.67,0,3.7,1.14,3.7,4.05Z"/>
    <path class="cls-2" d="M274.2,156.23c0,4.02-1.45,5.42-4.91,5.42h-2.31l-1.07-9.54h8.28v4.12Zm-1.48-2.96h-5.2l.79,7.22h.97c2.64,0,3.43-1.1,3.43-4.26v-2.96Z"/>
    <path class="cls-2" d="M277.08,161.66v-1.16h1.21c1.03,0,1.38-.44,1.38-1.62v-5.6h-1.81v-1.16h3.31v6.93c0,1.94-.59,2.61-2.34,2.61h-1.75Z"/>
    <path class="cls-2" d="M285.47,161.66v-9.54h1.49v9.54h-1.49Z"/>
    <path class="cls-2" d="M299.14,157.66c0,2.94-1.08,3.99-3.56,3.99h-1v-1.16h.78c1.56,0,2.3-.59,2.3-2.81v-4.4h-6.49v-1.16h7.97v5.55Zm-6.38-1.59v7.97h-1.5v-7.97h1.5Z"/>
  </g>
  <path class="cls-2" d="M197.27,95.56l-8.95,29.91-11.93-33.46-.56-.02-8.36,25.76s.02,0,.03,.01l-2.9,8.95-3.04-9.8s.02,0,.04,0l-6.12-19.68c-.12-.41-.18-.79-.18-1.13,.06-1.58,1.29-2.45,2.53-2.45h.53v-.72h-13.4v.72h.48c1.85,0,4.29,1.06,5.29,3.68l13.69,38.67h.57c.1-2.96,1.26-6.71,1.26-6.71l3.51-10.67s.09,.04,.13,.06l5.5-17.17,8.69,24.29s0-.06,.01-.08l3.64,10.17h.57c.09-2.87,1.32-6.7,1.32-6.7l11.59-33.62c2.21-6.41,6.99-16.33,17-16.74v-.6c-12.37-.47-18.69,9.89-20.92,17.35Z"/>
  <g>
    <path class="cls-1" d="M167.96,4.45s-.06-.01-.09-.01c0,0,0,0,0,0,.03,0,.06,0,.09,.01Z"/>
    <path class="cls-1" d="M113.76,48.67c.06,.09,.15,.15,.29,.16,0,0,0,0,0,0-.13-.01-.23-.07-.29-.16Z"/>
    <path class="cls-1" d="M115.28,49.88s0,0,0,0c.1,.11,.2,.23,.33,.31,0,0,0,0,0,0-.11-.1-.22-.2-.33-.3Z"/>
    <path class="cls-1" d="M166.95,3.75s0,0,0,0c.12,.09,.23,.18,.35,.28-.12-.09-.21-.22-.35-.28,0,0,0,0,0,0Z"/>
    <path class="cls-1" d="M176.37,9.58s0,0,0,0c0,0,0,0,0,0-.08-.13-.19-.24-.31-.33,0,0,0,0,0,0,.1,.11,.2,.21,.3,.32Z"/>
    <path class="cls-1" d="M173.79,7.04s-.03,0-.05,0c0,0,0,0,0,0,.02,0,.04,0,.05,0Z"/>
    <path class="cls-1" d="M178.02,11.59s-.04,0-.06-.01c0,0,0,0,0,0,.02,0,.04,0,.06,.01Z"/>
    <path class="cls-1" d="M119.24,13.86s-.07,.01-.09,.02c.03,0,.06-.02,.09-.02,0,0,0,0,0,0Z"/>
    <path class="cls-1" d="M116.37,19.21c-.03,.05-.05,.11-.05,.19,0,0,0,0,0,0,0-.07,.02-.14,.05-.19Z"/>
    <path class="cls-1" d="M113.7,48.56s.01,.03,.02,.04c0-.01-.01-.03-.02-.04Z"/>
    <path class="cls-1" d="M113.69,48.53s0,.02,.01,.03c0-.01,0-.02-.01-.03,0,0,0,0,0,0Z"/>
    <path class="cls-1" d="M123.45,11.58s-.03,0-.05,0c.02,0,.03,0,.05,0,0,0,0,0,0,0Z"/>
    <path class="cls-1" d="M125.36,9.26s0,0,0,0c-.12,.09-.23,.2-.31,.33,0,0,0,0,0,0,.1-.11,.2-.22,.3-.32Z"/>
    <path class="cls-1" d="M112.36,47.27s0,0,0,0c0,0,0,0,0,0,0,0,0,0,0,0,0,0,0,0,0,0-.11-.1-.21-.21-.32-.31,0,0,0,0,0,0-.1-.11-.21-.22-.31-.33,0,0,0,0,0,0,0,0,0,0,0,0,.08,.13,.19,.24,.32,.33,.09,.12,.2,.23,.32,.32,.09,.12,.2,.24,.33,.31,0,0,0,0,0,0-.11-.1-.21-.2-.32-.3Z"/>
    <path class="cls-1" d="M112.03,26.82s0,0,0,0c-.13,.09-.24,.2-.32,.32,0,0,0,0,0,0,.11-.11,.22-.21,.32-.32Z"/>
    <path class="cls-1" d="M185.13,50.8s.05-.01,.08-.02c-.02,0-.05,.02-.08,.02,0,0,0,0,0,0Z"/>
    <path class="cls-1" d="M180.58,54.7s.05,0,.07-.02c-.02,0-.04,.01-.07,.01,0,0,0,0,0,0Z"/>
    <path class="cls-1" d="M171.46,67.77s0-.03,.01-.05c0,0,0,0,0,0,0,.02,0,.03-.01,.05Z"/>
    <path class="cls-1" d="M158.63,71.87l-.06,.03s.04-.02,.06-.03Z"/>
    <path class="cls-1" d="M183.19,52.43s.03,0,.04-.01c-.01,0-.03,0-.04,.01,0,0,0,0,0,0Z"/>
    <path class="cls-1" d="M158.12,72.25s0,0,0,0c.2-.02,.3-.13,.33-.32,0,0,0,0,0,0-.04,.18-.15,.28-.33,.31Z"/>
    <path class="cls-1" d="M142.87,71.92s.06,.02,.1,.02c0,0,0,0,0,0-.03,0-.07-.01-.09-.02Z"/>
    <path class="cls-1" d="M158.46,71.94s.08-.01,.11-.03c-.03,.01-.07,.02-.11,.03,0,0,0,0,0,0Z"/>
    <path class="cls-1" d="M185.82,50.18s0,0,0,0c.14-.07,.24-.19,.33-.31,0,0,0,0,0,0-.11,.1-.22,.2-.33,.3Z"/>
    <path class="cls-1" d="M182.29,13.89s-.07-.02-.1-.02c0,0,0,0,0,0,.04,0,.07,0,.1,.02Z"/>
    <path class="cls-1" d="M183.17,14.82s0-.04-.01-.06c0,.02,.01,.04,.01,.06,0,0,0,0,0,0Z"/>
    <path class="cls-1" d="M185.1,19.41c0-.07-.01-.13-.04-.18,.02,.05,.04,.11,.04,.18,0,0,0,0,0,0Z"/>
    <path class="cls-1" d="M187.38,48.83s0,0,0,0c.14,0,.24-.07,.3-.17-.06,.1-.16,.15-.3,.16Z"/>
    <path class="cls-1" d="M194.07,36.91c-.16-1.72-.2-3.45-.65-5.12-.07-.23-.14-.46-.21-.7-.28-.29-.53-.59-.62-.99-.96-.99-1.92-1.97-2.87-2.96-.21-.02-.32-.12-.33-.33-.31-.26-.82-.38-.69-.96-.02-.04-.03-.07-.05-.11-.21-.49-.21-1.01-.25-1.53-.22-.43-.44-.85-.66-1.28-.29-.13-.34-.37-.34-.65-.31-.24-.33-.6-.36-.95-.23-.17-.27-.41-.3-.67-.55-.42-1.09-.83-1.64-1.25,0,0,0,0,0,0-.2-.05-.3-.18-.3-.39-.53-.79-.95-1.62-.98-2.59-.3-.25-.32-.6-.35-.95-.22-.16-.28-.4-.32-.64-.17-.06-.26-.18-.29-.35-.18-.04-.29-.14-.33-.31-.18-.03-.3-.12-.36-.29-.39-.11-.72-.31-.96-.64-.25-.05-.49-.12-.62-.37-.29-.03-.57-.09-.76-.34l-.1,.04-.07-.08c-.57,.06-1.03-.11-1.33-.62-.18-.02-.32-.1-.38-.28-.37-.07-.6-.28-.66-.66-.31-.26-.52-.59-.62-.98-.18-.05-.27-.18-.3-.36-.18-.04-.29-.15-.31-.34-.48-.29-.78-.74-1.05-1.22-.36-.17-.67-.41-.88-.74-.18,0-.33-.06-.4-.24-.25-.04-.49-.1-.64-.33-.34-.05-.69-.08-.95-.36-.46-.01-.92,0-1.28-.35-.36,0-.72-.03-.97-.34-.27,0-.52-.04-.66-.31-.41-.09-.72-.32-.96-.66-.18,0-.32-.07-.39-.25-.25-.05-.46-.16-.56-.43h0c-.19-.01-.31-.1-.37-.29-.39-.12-.75-.28-.99-.63-.64-.32-1.29-.64-1.93-.96-.43-.04-.87-.06-1.24-.31-.02-.01-.04-.03-.06-.04-.75-.01-1.5-.02-2.24-.03l-.1,.08-.12-.06h0c-.75,.24-1.43,.05-2.08-.29-.37,0-.71-.06-.96-.37-.36,0-.7-.05-.97-.33-.67,.06-1.28-.27-1.93-.34-.85,.56-1.67,.13-2.48-.11-.41-.12-.84-.49-1.22-.31-2.27,1.08-4.93,.16-7.17,1.47-.63,.37-1.43,.51-2.2,.38-2.53-.43-4.7,.46-6.65,1.92-1.66,1.24-3.37,2.3-5.44,2.72-1.03,.21-1.83,.89-2.68,1.45-.3,.48-.6,.96-1.1,1.27-.02,.19-.13,.3-.31,.34-.03,.18-.12,.3-.3,.35-.11,.39-.31,.72-.62,.99-.06,.39-.29,.59-.66,.66-.06,.18-.2,.26-.38,.28-.3,.51-.75,.69-1.32,.63l-.07,.08-.1-.04s0,0,0,0c-.19,.25-.47,.31-.76,.34-.13,.25-.37,.32-.62,.37-.24,.33-.57,.53-.97,.64-.06,.18-.18,.26-.36,.29-.04,.18-.15,.28-.33,.31-.03,.17-.12,.3-.29,.35-.04,.25-.09,.49-.32,.64-.03,.35-.05,.7-.35,.96-.04,.97-.45,1.8-.98,2.59,0,.21-.09,.34-.29,.39-.47,.52-1.2,.68-1.64,1.24-.03,.26-.07,.51-.3,.68-.03,.35-.05,.71-.36,.95,0,.27-.05,.52-.34,.65-.22,.43-.44,.85-.66,1.28-.05,.51-.04,1.04-.24,1.52-.01,.04-.03,.08-.05,.12,.13,.58-.38,.7-.69,.96-.02,.21-.13,.32-.33,.33-.96,.99-1.92,1.97-2.88,2.96-.09,.4-.35,.7-.62,.99-.04,.26-.04,.53-.13,.77-.79,2.1-.61,4.31-.76,6.48-.07,1.1,.65,2,.85,3.05,.33,.38,.52,.83,.65,1.3,.51,.43,.72,1.04,.97,1.63,.51,.47,1.05,.92,1.32,1.59,.18,.05,.28,.17,.3,.36,.18,.04,.28,.16,.31,.34,.18,.04,.29,.15,.32,.33,.18,.03,.29,.14,.33,.32,.19,.03,.3,.13,.34,.31,.18,.03,.29,.14,.33,.32,.18,.03,.29,.14,.33,.32,.18,.03,.3,.12,.35,.3,.18,.03,.3,.12,.35,.3,.49,.25,.91,.59,1.21,1.06,.19,.02,.31,.12,.35,.31,.18,.03,.3,.13,.34,.31,.18,.03,.3,.13,.35,.31,.64,.31,1.15,.77,1.57,1.34,.19,.01,.32,.1,.38,.29,.87,.51,1.57,1.22,2.23,1.98,.19,.01,.32,.1,.38,.28,.38,.13,.7,.35,.93,.69,.4,.09,.74,.29,1.01,.59,.58,.12,1.12,.32,1.6,.68,.36,.02,.7,.08,.96,.36,.28-.02,.53,.02,.7,.27,1.76,.52,1.78,.54,1.92,2.23,.11,1.34,.36,2.68,.29,4.03l.08,.07-.04,.1s0,0,0,0c.3,.31,.3,.7,.32,1.09,.24,.16,.32,.39,.32,.66,.51,.67,.68,1.48,1,2.23,.19,.06,.27,.2,.27,.39,.56,.65,1.35,1,2.01,1.52,0,0,0,0,0,0,.65,.22,1.29,.44,1.94,.66,.09,.02,.19,.05,.28,.09,1.51,.3,3.11-.06,4.57,.6,0,0,0,0,0,0,.61,.07,1.25,.04,1.82,.3,.04,.02,.08,.03,.12,.06,.56,0,1.16-.15,1.63,.31,.2,0,.32,.11,.37,.3,.18,.04,.29,.14,.33,.32,.37,.14,.7,.34,.95,.64,.66,.18,1.32,.33,1.91,.71,.36,0,.72,.02,1.01,.29,.9,.12,1.83-.01,2.7,.36,0,0,0,0,0,0l.09-.05,.08,.08c.43,0,.87,0,1.3,0l.08-.08,.1,.05c.86-.37,1.8-.24,2.7-.36,.29-.27,.65-.29,1.01-.29,.58-.38,1.25-.53,1.91-.71,.26-.31,.59-.5,.96-.65,.05-.18,.16-.28,.33-.32,.05-.19,.17-.29,.37-.3,.48-.45,1.07-.3,1.64-.31,.04-.02,.08-.04,.12-.06,.58-.26,1.21-.23,1.83-.3h0s0,0,0,0h0s0,0,0,0c1.46-.65,3.06-.29,4.57-.59,1.52-.55,3.08-1.03,4.23-2.27,0-.19,.09-.33,.27-.39,.33-.74,.5-1.56,1-2.23,0-.27,.08-.51,.32-.66,.02-.39,.03-.79,.33-1.1h0s-.04-.09-.04-.09l.08-.07c-.07-1.36,.17-2.69,.29-4.03,.15-1.69,.16-1.72,1.94-2.23,.48-.38,1.04-.55,1.64-.63,.47-.36,1.02-.57,1.6-.68,.28-.3,.61-.5,1.01-.59,.23-.34,.55-.56,.93-.69,.06-.18,.19-.27,.38-.28,.65-.76,1.35-1.47,2.23-1.98,.05-.19,.19-.28,.38-.29,.42-.57,.93-1.03,1.57-1.35,.05-.18,.17-.28,.35-.31,.05-.18,.16-.28,.34-.3,.04-.18,.15-.29,.34-.31,.3-.47,.73-.8,1.21-1.06,.05-.18,.17-.27,.35-.3,.05-.18,.17-.27,.35-.3,.04-.18,.15-.28,.33-.32,.04-.18,.15-.29,.33-.32,.04-.18,.15-.29,.34-.31,.03-.18,.14-.29,.33-.33,.03-.19,.13-.3,.31-.34,.03-.18,.13-.3,.31-.34,.03-.18,.12-.31,.3-.36,.27-.67,.8-1.12,1.32-1.59,.24-.59,.46-1.2,.97-1.63,.14-.47,.33-.92,.65-1.3,.09-.3,.14-.61,.28-.89,.55-1.14,.66-2.33,.54-3.59Zm-9.87-16.83c.65,.42,1.44,.56,1.71,1.28,.59,1.61,1.75,2.99,1.9,4.78-.1,.42,.21,.92-.47,1.21-2.31,.99-4.21,2.61-6.15,4.16-1.73,1.38-3.43,2.8-5.15,4.2-.8,.65-1.57,1.33-2.14,2.2-.98,1.49-2.11,2.86-3.28,4.2-.17,.05-.28,.15-.31,.32l-.37,.31h.12s.08,.05,.08,.05c0,.01-.02,.02-.03,.03-.02-.02-.03-.04-.03-.04,0,0-.14-.05-.14-.05-.71,.51-1.19,1.22-1.63,1.95-.88,.97-1.76,1.94-2.63,2.9-1.73,1.52-3.36,3.14-4.86,4.9-1.3,1.21-2.51,2.5-3.63,3.87-.09-.1-.19-.19-.28-.29,.73-1.51,1.34-3.07,1.86-4.66,.41-1.24,1.07-2.35,1.72-3.47,1.24-1.17,2.19-2.59,3.27-3.89,2.09-1.58,3.93-3.37,5.05-5.81,.45-.99,1.24-1.76,1.9-2.63,1.27-1.68,2.64-3.3,3.71-5.12,.45-.76,1.1-1.28,1.81-1.81,2.43-1.83,4.49-4.05,6.47-6.35,.1-.11,.13-.29,.2-.43h0c.43-.59,.85-1.19,1.32-1.83Zm-6.56-7.06c.53,.42,1.19,.48,1.79,.7,1.07,.38,2.26,.78,2.71,1.88,.74,1.82,2.12,3.69,.4,5.72-.03,.03-.01,.1-.02,.16-2.02,2.49-4.42,4.58-6.86,6.62-1.4,1.17-2.27,2.74-3.36,4.14-2.02,2.6-4.02,5.22-5.68,8.08-.8,1.38-2.26,2.15-3.23,3.38-.31,.12-.51,.35-.66,.63-.26,0-.39-.13-.35-.38,.09-.52,.2-1.04,.3-1.55,1.09-2.67,2.73-5.02,4.18-7.49,1.82-3.12,3.74-6.2,5.2-9.53,.24-.54,.53-1.07,.51-1.69,1.19-3.48,2.5-6.91,4.09-10.23,.29-.24,.41-.88,.98-.42Zm-5.77-5.43c2.24,.78,3.46,2.59,4.51,4.55,.09,.16,0,.42,0,.63-1.89,3.29-3.33,6.75-4.18,10.46,0,0,0,0,0,0,0,0,0,0,0,0-.45,1.33-.94,2.65-1.69,3.84-1.84,2.91-3.21,6.09-5.26,8.88-1.27,1.73-2.29,3.65-2.86,5.75-.45,.6-.36,1.35-.56,2.03-.59,1.25-1.18,2.49-1.77,3.74h0c-1.18,1.87-2.07,3.87-2.72,5.97-.26,.83-.62,1.59-1.11,2.3-.12-.13-.25-.26-.37-.38,.1-1.21,.85-2.21,1.11-3.38,.54-.97,.89-2.01,1.2-3.07,1.85-4.75,3.73-9.49,4.62-14.54h0c.82-2.91,2.06-5.68,3.07-8.53,.21-.61,.53-1.19,.53-1.86h0c.5-.96,.75-1.98,.87-3.05,.1-.54,.43-1.03,.35-1.61,.08-.07,.1-.15,.07-.25,.38-.52,.3-1.12,.26-1.71,.04-.2,.07-.41,.11-.61,.31-.24,.28-.59,.28-.92,.45-.62,.31-1.34,.38-2.03,.24-2.37-.3-4.77,.28-7.12,.97,.31,1.94,.59,2.9,.93Zm-14.99,42.62s.02-.01,.02-.02c0,0,0,.02,0,.02-.02,.18-.04,.36-.06,.55-.35-.22-.18-.39,.04-.55Zm0,1.26s0,.01,0,.02c0,0-.01,0-.02,0,0,0,.01,0,.02-.01Zm4.13-48.5c1.81-.38,3.37,.29,4.78,1.39,.76,.59,1.46,1.26,2.34,1.68,.03,.1,.11,.21,.09,.3-.46,3.02,.16,6.06-.24,9.08-.12,.43-.39,.82-.34,1.29-.09,.07-.11,.16-.08,.26-.1,.13-.2,.26-.31,.39,0,0,0,0,0,0,.03,.33,.05,.66,.08,.99-.03,.31-.07,.63-.1,.94-.09,.02-.17,.05-.25,.09-.02,.39-.05,.78-.07,1.16-.41,.97-.6,2-.85,3.01-1.04,2.69-2.08,5.38-3.12,8.07-.21,.54-.46,1.08-.49,1.68-.83,2.74-1.41,5.55-2.31,8.27-.76,2.31-1.79,4.52-2.35,6.9-.1,.14-.21,.27-.31,.41-.26-.14-.22-.41-.29-.63,0-.22,0-.43,0-.65,.49-.92,.37-1.96,.6-2.93,.08-.76,.44-1.49,.32-2.28,.12-.64,.2-1.28,.09-1.93,.41-.81,.26-1.68,.29-2.53,.1-2.41,.2-4.83,0-7.24,.3-.84,.39-1.71,.33-2.6,.41-.71,.39-1.49,.32-2.27,.53-.82,.29-1.73,.34-2.61,.44-.81,.33-1.74,.57-2.6,.11-.65,.22-1.3,.33-1.95,.04-.54,.08-1.07,.12-1.61,0,0,0,0,0,0,.46-.46,.3-1.11,.5-1.65,.1-.32,.15-.64,.06-.96-.03,0-.05,0-.08,.01,0,0,0,0,0,0,.02,0,.05,0,.07,0,.42-.22,.36-.6,.33-.97,.4-.47,.36-1.09,.56-1.63h0c.14-.31,.18-.64,.1-.97,0,0,0,0,0,0h0s0,0,0,0c.57-.41,.31-1.11,.56-1.63-.07,0-.15,0-.22,0-.47,.46-.41,1.03-.34,1.6,0,0-.01,.02-.02,.03-.46,.2-.31,.61-.31,.97-.5,.43-.41,1.09-.6,1.63-.09,.33-.18,.65-.27,.98,.04,0,.08,0,.12,0,0,0,0,0,0,0-.04,0-.08,0-.12,0-.07,.31-.14,.63-.22,.94,0,0,0,0,0,0-.38,.49-.3,1.11-.46,1.67-.1,.53-.18,1.07-.1,1.61-.4,.6-.31,1.28-.28,1.94-.43,.82-.37,1.75-.62,2.61-.1,.87-.2,1.73-.3,2.6-.12,.76-.23,1.52-.35,2.28-.06,.87-.4,1.71-.32,2.6-.05,3.25-.06,6.51-.32,9.75-.09,.64-.19,1.29-.09,1.94-.35,.73-.31,1.51-.29,2.29-.45,.92-.36,1.96-.61,2.93-.02,.21-.04,.42-.06,.63-.21,.02-.25,.16-.23,.35h0c-.15,1.21-.65,2.35-.69,3.58-.72,2.44-1.42,4.89-2.64,7.15-.52,1.58-.27,3.27-.72,4.86-.07-.02-.13-.01-.2,0-.28-1.55,.47-3.03,.31-4.59-.1-.95,0-1.92,.02-2.88-.04-.1-.07-.21-.11-.31,0-1.07,.06-2.15-.04-3.21-.22-2.3-.27-4.59,.05-6.88,.1-.43,.16-.86,.06-1.3,.46-1.48,.41-3.03,.59-4.55,.11-.43,.17-.86,.07-1.3,.43-.94,.35-1.94,.31-2.93,.56-1.69,.37-3.47,.59-5.2,.11-1.19,.22-2.39,.33-3.58,.18-1.62,.47-3.23,.33-4.88,.12-1.3,.12-2.6,.05-3.9,.43-1.27,.37-2.58,.36-3.89,.51-1.34,.37-2.74,.34-4.12,.05-.2,.15-.41,.15-.61,.02-2.56,.37-5.08,.81-7.6,1.45,.32,2.86,.86,4.41,.53Zm-25.27,1.28c1.34-1,2.81-1.6,4.53-1.3,1.31,.23,2.58,.14,3.82-.37,.3-.12,.6-.3,.81,.13-.02,1.06,.25,2.07,.54,3.07,.04,.93,.08,1.86,.11,2.79-.07,.82-.06,1.64,.22,2.44-.04,1.29-.14,2.59,.33,3.84,0,1.28-.1,2.58,.37,3.82t0,0c.02,1.51,.04,3.02,.06,4.54,0,0,0,0,0,0,.03,3.18,.42,6.32,.89,9.46-.08,1.32-.03,2.62,.36,3.89-.02,.88-.12,1.77,.3,2.6-.1,.44-.04,.87,.07,1.3,.17,1.52,.14,3.07,.59,4.55h0c-.09,.44-.04,.87,.06,1.3,.62,3.36-.2,6.73,0,10.09-.24,1.28-.07,2.57-.11,3.86-.09,0-.17,.01-.26,.03-1.16-2.65-2.24-5.32-2.97-8.12,.11-.77-.39-1.45-.35-2.21,.09-.39,.1-.76-.22-1.06-.09-.24,0-.57-.35-.67-.02-.21-.04-.42-.06-.62-.25-.86-.07-1.81-.6-2.61,.11-.44,.02-.87-.06-1.29-.25-1.72-.13-3.48-.45-5.19,0-.11-.04-.23-.07-.35-.01-.05-.02-.09-.03-.14-.01-2.42-.02-4.83-.03-7.25,0-.49-.02-.97-.31-1.39,0,0,0,0,0,0,.09-.44,.01-.87-.07-1.3-.12-.76-.23-1.52-.35-2.28-.09-.86-.18-1.72-.28-2.59-.22-.76-.05-1.63-.63-2.29,.03-.77,.13-1.56-.29-2.27-.02-.67,.2-1.38-.37-1.95-.02,0-.05,0-.07,0,0,0,0,0,0,0,.03,0,.07,0,.07,0,.11-.33,.04-.65-.06-.97-.12-.43-.24-.86-.35-1.3-.09-.33-.17-.65-.26-.98-.15-.56-.13-1.19-.58-1.64,0,0,0,0,0,0-.05-.35,.13-.78-.35-.97,0,0,0,0,0-.01,.06-.57,.12-1.15-.34-1.61,.08-.68,.05-1.34-.31-1.95,.05-.57,.11-1.15-.3-1.64h0c.06-.75-.21-1.37-.67-1.92-.18,.72,.16,1.31,.34,1.93h0c.12,.54,.23,1.08,.35,1.62,.12,.65,.23,1.3,.35,1.95,.26,.52,0,1.22,.56,1.64h0s0,0,0,0c-.08,.33-.03,.65,.08,.96,.2,.54,.16,1.17,.56,1.63h0c0,.37-.08,.76,.35,.98-.05,.47-.13,.94,.29,1.31,0,0,0,0,0,0,.04,.32,.08,.65,.11,.97h.11s0,0,0,0c0,0,0,0,0,0-.04,0-.07,0-.11,0,.09,.65,.18,1.3,.28,1.95,.12,.75,.24,1.5,.36,2.26,.23,.88,.12,1.83,.52,2.68,.12,.74-.18,1.55,.36,2.23-.06,.78-.11,1.56,.32,2.27,0,0,0,0,0,0,.03,.43,.05,.87,.08,1.3,.3,2.12,.06,4.26,.17,6.38,.05,1.01,.1,2.02,.15,3.03h0s0,0,0,0c.1,1.64,.05,3.3,.56,4.9-.05,.44,0,.87,.12,1.29,.3,.84,.04,1.81,.56,2.6,0,.22,0,.43,0,.65-.07,.23-.03,.51-.3,.64-1.74-4.6-3.42-9.22-4.51-14.03-.12-.53-.29-1.04-.44-1.56h0s0,0,0,0c-.35-1.8-1.2-3.41-1.82-5.11-.57-1.55-1.19-3.09-1.79-4.63-.08-.45-.16-.89-.24-1.34-.04-.04-.07-.09-.1-.13-.23-.35-.21-.75-.21-1.15-.09-.06-.11-.13-.05-.22,0,0,0,0,0,0-.09-.05-.17-.11-.25-.17-.03-.4-.06-.8-.08-1.2-.08-.02-.16-.04-.24-.06-.02-.21-.04-.42-.07-.63,.01-.43,.03-.87,.04-1.3-.1-.13-.2-.26-.31-.39,0,0,0,0,0,0,.03-.11,0-.19-.08-.26,.06-.37-.12-.67-.29-.98h0c-.43-3.23,.03-6.47-.21-9.7,.94-.44,1.67-1.17,2.49-1.79Zm10.87,18.75c-.01,.07-.04,.14-.09,.2,.03-.07,.06-.13,.09-.2Zm2.32,41.17h0s-.1,.01-.1,.01c-.03-.31-.07-.61-.1-.92,.1-.22,.19-.44,.29-.65,0,.52,0,1.05,.01,1.57h-.09ZM125.21,11.7c1.24-2,2.65-3.78,5.1-4.37,.73-.18,1.43-.44,2.14-.66,.58,2.34,.04,4.73,.28,7.08,.07,.68-.09,1.41,.36,2.02,.01,.35-.02,.72,.29,.99h0s0,0,0,0c.04,.2,.08,.41,.11,.61-.04,.59-.14,1.18,.25,1.7-.04,.1-.01,.19,.07,.26-.08,.58,.25,1.07,.35,1.61,.12,1.07,.38,2.09,.87,3.05,.28,1.61,.99,3.08,1.57,4.58,.73,1.92,1.45,3.83,2.03,5.8,.63,3.79,1.92,7.39,3.26,10.98,1.09,2.92,2.19,5.84,3.29,8.77t0,0c-.07,.28-.02,.52,.25,.67,.04,.19,.08,.38,.12,.57-.12,.13-.25,.25-.37,.38h0c.05-.3-.1-.5-.35-.64-.43-.44-.54-1.02-.72-1.57-.7-2.12-1.57-4.17-2.77-6.06-.59-1.24-1.18-2.49-1.76-3.73-.19-.68-.1-1.43-.55-2.03-.7-2.35-1.89-4.45-3.34-6.41-.64-.87-1.22-1.77-1.68-2.75-.41-.87-.89-1.72-1.41-2.54-1.36-2.15-2.55-4.37-3.38-6.78-.16-1.7-.93-3.2-1.51-4.76-.73-1.97-1.51-3.92-2.67-5.69-.05-.38-.05-.72,.17-1.08Zm-7.23,7.19c.48-.74,.59-1.61,.87-2.42,.37-1.08,1.08-1.79,2.08-2.33,.95-.52,2.08-.52,2.98-1.2,.44-.33,.57,.3,.84,.5,1.59,3.32,2.91,6.75,4.09,10.23,.38,2.01,1.41,3.73,2.43,5.45,1.81,3.07,3.36,6.29,5.45,9.2,.89,1.24,1.34,2.71,2.01,4.06h0c.1,.52,.21,1.04,.3,1.56,.04,.25-.09,.38-.33,.39-.01,0-.02-.01-.03-.02-.4-.42-.76-.89-1.21-1.25-1.47-1.22-2.77-2.58-3.65-4.28-1.41-2.7-3.61-4.83-5.27-7.35-.47-.71-1.04-1.36-1.56-2.04-.24-.57-.73-.91-1.19-1.27-2.03-1.58-3.76-3.48-5.66-5.2-.47-.42-.82-.97-1.23-1.46-.06-.63-.47-1.07-.82-1.54-.26-.34-.33-.68-.1-1.04Zm17.71,50.4c-.74-.02-1.48-.28-2.2-.51-1.57-.5-2.64-1.46-3.29-3.06-.88-2.17-.9-4.41-.98-6.65,.25-.13,.44-.08,.64,.04,1.56,.97,3.21,1.78,4.89,2.49,1.35,.57,2.38,1.49,3.19,2.64,.77,1.1,1.42,2.28,2.12,3.44,.5,.83,.99,1.67,1.61,2.71-2.16-.57-4.02-1.06-5.98-1.11Zm6.59-.8c-.94-1.45-1.88-2.9-2.83-4.34-1.05-1.61-2.32-2.98-4.14-3.74-.85-.36-1.68-.75-2.48-1.2-2.87-1.61-5.72-3.26-8.87-4.31-1.02-.34-1.97-.95-2.76-1.68-2.71-2.49-5.86-4.47-8.3-7.26-2.41-2.76-4.56-5.66-4.1-9.66,.27-.13,.1-.93,.73-.5,2.13,1.47,4.72,2.21,6.59,4.1,5.54,2.82,9.43,7.7,14.27,11.4,.13,.1,.27,.17,.4,.26,2.09,2.27,4.22,4.49,6.58,6.49,.67,.61,1.31,1.26,2.03,1.82,2.92,2.26,4.79,5.29,6.3,8.58,.47,1.02,.97,2.03,1.45,3.04,.13,.27,.38,.56-.01,.83-2.13-.62-3.67-2-4.85-3.83Zm6.5,3.71c-.04,.54-.39,.35-.66,.12,.19-.99-.43-1.79-.8-2.56-1.07-2.27-2.4-4.41-3.82-6.51-1.55-2.28-3.62-3.93-5.72-5.61-2.37-1.98-4.39-4.31-6.59-6.46-2.27-2.48-4.98-4.46-7.49-6.67-.69-.61-1.39-1.2-2.09-1.8-.41-.35-.77-.79-1.24-1.04-3.71-1.98-6.87-4.85-10.64-6.74-.09-.05-.21-.03-.32-.05-.08-.19-.25-.39-.23-.57,.25-1.99,.73-3.88,2.4-5.24,.49-.4,.93-.87,1.39-1.3,.6-.19,1.03,.19,1.49,.47,2.08,1.28,4.05,2.7,5.92,4.27,1.03,.87,2.05,1.77,3.14,2.57,1.85,1.36,3.5,2.87,4.66,4.9,.56,.98,1.39,1.78,2.38,2.39,.05,.17,.15,.28,.33,.3,.1,.12,.21,.25,.31,.37-.03-.09-.01-.17,.06-.23h0c.06-.06,.14-.09,.23-.07-.14-.21-.3-.4-.55-.48h0c.01-.11-.03-.16-.14-.17-1.18-1.34-2.3-2.71-3.28-4.2-.35-.53-.8-1.04-1.29-1.44-3.18-2.59-6.23-5.35-9.61-7.67-.75-.52-1.48-1.13-2.37-1.38-.78-.21-.58-.76-.63-1.26,.12-1.44,.99-2.6,1.49-3.9,.43-1.11,1.06-1.82,2.21-2.07,.42,.59,.81,1.16,1.21,1.73h0c.12,.23,.19,.52,.37,.69,2.13,2.17,4.05,4.56,6.6,6.29,.39,.27,.75,.59,1.13,.88,1.1,2.18,2.69,4.02,4.18,5.92,.94,1.19,1.8,2.41,2.51,3.75,.38,.72,.76,1.45,1.39,1.97,2.34,1.93,4.26,4.25,6.25,6.51,.89,1.39,1.53,2.9,2.08,4.45,.44,1.25,1,2.46,1.5,3.68-.09,.1-.18,.19-.27,.29-1.23-1.48-2.54-2.88-3.95-4.2-1.4-1.64-2.92-3.16-4.54-4.56-.88-.97-1.76-1.94-2.63-2.91-.45-.73-.92-1.45-1.63-1.95,0,0-.14,.05-.14,.05,0,0-.1,.11-.1,.11,0,0-.04,.14-.04,.14,.52,.69,1.04,1.38,1.56,2.06,.58,1.21,1.45,2.15,2.58,2.86,1.48,1.58,2.98,3.14,4.62,4.55,1.04,1.17,2.07,2.34,3.11,3.5,1.3,1.45,2.42,3.02,3.34,4.74-.04,.08-.02,.14,.07,.18-.02,.29,.09,.52,.3,.71,.04,.66,.34,1.25,.57,1.85,.64,1.74,1.09,3.51,1.12,5.37,0,.33,.04,.65,.26,.92h0c.02,.8,.1,1.61,.05,2.41Zm1.47,.1c-.2-.4-.15-.84-.24-1.25,.12-.6,.13-1.18-.22-1.72,.02-1.28,.05-2.56-.1-3.84,.1-1.11-.27-2.16-.34-3.25-.06-1.36-.13-2.71-.19-4.07,.39-3.7,.39-7.41,.2-11.12-.01-.26-.16-.5-.25-.76,.09-.44,.04-.86-.07-1.29,0-.41,0-.81,.01-1.22,0,0,0,0,0,0-.37-.86-.28-1.78-.3-2.68-.09-.06-.1-.13-.03-.21,0,0,0,0,0,0-.09-.15-.18-.29-.27-.44,.11-.44,.04-.87-.06-1.3,.02-.33,.03-.65,.05-.98,0,0,0,0,0,0,0,0,0,0,0,0-.36-.49-.18-1.1-.37-1.62h0c0-.39,0-.78,0-1.17,0,0,0,0,0,0-.42-.87-.16-1.83-.34-2.73,.01-.33,.03-.66,.04-.98-.4-2.2-.44-4.43-.63-6.65-.07-.84,.07-1.71-.28-2.52,.05-1.28,.08-2.55-.09-3.83,.05-1.42-.25-2.81-.34-4.22,0,0,0,0,0,0,0,0,0,0,0,0-.28-1.72-.19-3.46-.32-5.19,0-.84,.01-1.69,.02-2.53,0,0,0,0,0,0-.06-.05-.12-.11-.17-.16-.02,0-.04,0-.06,0,0-.02,0-.03,.02-.05h0c.05-.51,0-1.01-.13-1.51h0c.02-.11,.05-.21,.07-.32,0,0,0,0,0,0,0,0,0,0,0,0-.45-.57-.09-1.41-.62-1.96,.15-1.08,1.05-.9,1.73-.97,.47-.05,1.01,.28,1.43,.14,2.03-.68,4.07,.21,6.1-.14,.61-.11,1.29,.06,1.72,.66-.74,2.33-.94,4.73-.89,7.15-.11,1.73-.22,3.46-.33,5.2-.24,.85,.05,1.77-.37,2.6,.02,.43,.03,.87,.05,1.3-.18,1.3-.17,2.6-.08,3.9-.09,.14-.17,.28-.26,.41,0,0,0,0,0,0-.02,1.48-.05,2.97-.07,4.45-.09,.11-.19,.22-.28,.33,0,0,0,0,0,0h0c0,1.08,0,2.17-.01,3.25-.06,.13-.12,.27-.17,.4-.02,.1-.06,.21-.13,.29,.06,.1,.05,.2-.04,.28,0,1.13,.12,2.27-.27,3.36,.06,.08,.05,.16-.04,.21,.02,.22,.04,.43,.06,.65-.19,.56,.02,1.21-.35,1.74,.07,.08,.05,.16-.04,.21,.02,.33,.03,.65,.05,.98-.1,.43-.17,.86-.06,1.3-.09,.14-.18,.28-.28,.42,0,0,0,0,0,0,.07,.09,.06,.16-.04,.23-.02,.9,.07,1.81-.3,2.67,0,.41,.01,.82,.02,1.23-.11,.43-.15,.85-.07,1.29-.31,.42-.29,.92-.3,1.4-.09,3.5-.14,7,.25,10.48,0,0,0,0,0,0h0c.06,2.35-.36,4.66-.51,6.99-.15,1.38-.14,2.77-.11,4.16-.36,.54-.34,1.12-.22,1.72-.02,.31-.05,.63-.07,.94-.28,.12-.31,.37-.33,.63-.37,.16-.58,.02-.76-.32Zm2.48,.32c-.13-2.59,.19-5.12,.87-7.61,.39-1.44,.93-2.85,1.4-4.27,1.36-2.55,3.22-4.71,5.21-6.77,.33-.35,.62-.74,.93-1.11,1.72-1.55,3.36-3.18,4.93-4.89,1.14-.71,2.01-1.66,2.59-2.87,.52-.69,1.04-1.37,1.56-2.06,0,0-.04-.14-.04-.14,0,0-.04-.04-.07-.07,0-.01,.02-.02,.03-.03h.02s0,.01,0,.01c.07,.06,.1,.14,.06,.23,.1-.12,.21-.25,.31-.37,.18-.02,.28-.14,.33-.3,1.16-.75,2.05-1.75,2.74-2.92,.84-1.42,1.95-2.56,3.27-3.56,3.28-2.47,6.24-5.37,9.8-7.47,.54-.32,1.02-.85,1.76-.64,0,0,0,0,0,0,.76,.74,1.6,1.42,2.25,2.25,1.11,1.41,1.71,3.01,1.3,4.86-2.24,1.18-4.51,2.29-6.45,3.96-.45,.39-.88,.88-1.41,1.08-2.67,.99-4.58,3.03-6.66,4.81-2.46,2.09-5.06,4.05-7.24,6.46-.54,.27-.89,.76-1.25,1.21-1.59,1.94-3.52,3.55-5.33,5.26-2.97,2.11-5.36,4.73-7.23,7.89-1.07,1.8-2.01,3.64-2.86,5.55-.18,.41-.3,.8-.24,1.24-.19,.1-.38,.2-.57,.31Zm19.32-10.19c-.86,5.13-2.03,6.16-6.34,6.82-1.91,.29-3.82,.57-6.03,1.15,1.33-2.19,2.45-4.15,3.7-6.03,.77-1.17,1.77-2.14,3.14-2.7,1.39-.57,2.71-1.32,4.08-1.96,.51-.24,.88-.82,1.47-.71,0,1.18,.16,2.33-.03,3.43Zm19.31-20.39c-1.54,2.8-3.72,5.01-6.15,7.02-1.29,1.07-2.63,2.08-3.87,3.21-1.55,1.4-3.26,2.48-5.23,3.17-1.07,.37-2.13,.77-3.13,1.32-2.56,1.4-5.05,2.92-7.74,4.07-.55,.24-.99,.64-1.42,1.06-1.5,1.44-2.52,3.22-3.6,4.97-1.47,2.37-3.02,4.65-5.93,5.45-.31-.19-.2-.43-.09-.69,1.31-2.87,2.62-5.72,4.48-8.32,.93-1.3,2.07-2.31,3.22-3.34,.72-.64,1.43-1.29,2.15-1.93h0c2.36-1.99,4.5-4.21,6.58-6.49,3.31-2.62,6.46-5.42,9.57-8.27,1.12-1.03,2.28-1.99,3.74-2.53,.35-.13,.71-.32,.97-.58,1.98-1.93,4.6-2.81,6.84-4.31,.7-.47,.64,.19,.88,.44h0c.28,2.07-.27,3.94-1.27,5.74Z"/>
    <path class="cls-1" d="M182.33,13.9l.04,.02s-.02-.02-.04-.02Z"/>
    <path class="cls-1" d="M187.73,48.53s0,.03-.01,.04c0-.01,0-.02,.01-.04,0,0,0,0,0,0Z"/>
    <path class="cls-1" d="M187.72,48.57s-.01,.03-.02,.04c0-.01,.01-.03,.02-.04Z"/>
    <path class="cls-1" d="M142.97,71.94s0,0,0,0c.04,.18,.14,.3,.33,.32,0,0,0,0,0,0-.18-.03-.29-.13-.33-.31Z"/>
    <path class="cls-1" d="M153.31,35.58s-.04,.06-.06,.09l.06-.09Z"/>
    <path class="cls-1" d="M163.36,5.66c.18-.62,.52-1.21,.48-2.13-.72,.71-.81,1.4-.82,2.12-.44,.59-.36,1.26-.3,1.92,.62-.5,.36-1.3,.63-1.92Z"/>
    <path class="cls-1" d="M162.72,7.64s0,0,0,0c0,0,0,0,0,0,0,0,0,0,0,0-.46,.47-.31,1.05-.28,1.61h.11s.11,0,.11,0c.11-.53,.23-1.05,.06-1.59Z"/>
    <path class="cls-1" d="M162.73,7.61s0-.02,0-.04c0,0-.02,.01-.02,.02h0s0,.02,0,.04c0,0,.01-.01,.02-.02,0,0,0,0,0,0Z"/>
  </g>
</svg>