<svg xmlns="http://www.w3.org/2000/svg" viewBox="0 0 108.98 86.16"><defs><style>.cls-1{fill:#252626;}</style></defs><g id="Layer_2" data-name="Layer 2"><g id="Design"><path class="cls-1" d="M72.77,12.67V0H0V72.78H72.77V57.59a7.8,7.8,0,0,1-2,3.52,8.51,8.51,0,0,1-6.31,2.38,8.21,8.21,0,0,1-3.35-.57V57.16a5.24,5.24,0,0,0,2.21.3,3,3,0,0,0,2.36-1A3.5,3.5,0,0,0,66.53,54V46.55H53.81V37.29h6.58v3.05H72.77v-11q-.93,6-7.71,6H53.56V29.19H64A2,2,0,0,0,66.23,27V18.86h-6.1V25H53.56V12.67Zm-35,28.42H31.19V22.89h6.58Zm2.41-5.86V29.71a4.91,4.91,0,0,0,1.73.32c1.83,0,2.76-1,2.76-3V18.86H31V12.67H51.24V27.55a8.42,8.42,0,0,1-2.08,6.1,7.48,7.48,0,0,1-5.63,2.16A8.93,8.93,0,0,1,40.18,35.23ZM51.56,53.17H45V40.34h6.59Z"/><path class="cls-1" d="M.06,78.47v1.07h3.7V86h1V79.54H6V78.47Z"/><path class="cls-1" d="M6.94,78.47v4.26H8V78.47Z"/><path class="cls-1" d="M9.06,78.47v1.07h1.36V84a1.28,1.28,0,0,1-.31.89,1,1,0,0,1-.79.34A1.56,1.56,0,0,1,8.6,85v1a1.91,1.91,0,0,0,.78.14c1.39,0,2.09-.81,2.09-2.42v-4.2h3.75V86h1V78.47Z"/><path class="cls-1" d="M22.55,78.46v4.43A1.92,1.92,0,0,1,20.48,85h-.13l-2-6.55H17.22L19.27,85h-2.2v1h3.45a3,3,0,0,0,2.25-.85,3.31,3.31,0,0,0,.83-2.44V78.46Z"/><path class="cls-1" d="M27.68,78.47V86h6.59V78.47Zm5.55,6.45h-4.5V79.54h4.5Z"/><path class="cls-1" d="M35.27,78.47v1.07h4.19v3.52A2,2,0,0,1,39,84.37a1.63,1.63,0,0,1-1.32.58H35.27V86h2.29a3,3,0,0,0,2.1-.76,2.67,2.67,0,0,0,.84-2.1V78.47Z"/><path class="cls-1" d="M42.26,78.47V75.74h-1v3.8H45.6v3.8a1.92,1.92,0,0,1-.47,1.32,1.47,1.47,0,0,1-1.12.51,1.63,1.63,0,0,1-.87-.17v1a1.79,1.79,0,0,0,.77.14,2.59,2.59,0,0,0,2-.78,3,3,0,0,0,.72-2.12V78.47Z"/><path class="cls-1" d="M50.65,78.47V86h6.57V78.47Zm5.54,6.45h-4.5V79.54h4.5Z"/><path class="cls-1" d="M58.44,78.47v4.26h1.05V78.47Z"/><path class="cls-1" d="M60.55,78.47v1.07h1.67V85h-2V86h3.05V78.47Z"/><path class="cls-1" d="M64.58,78.47V86h1V78.47Z"/><path class="cls-1" d="M71.8,84.92V78.47H66.73v1.07h4v5.38H66.53V86h6.32v-1.1Z"/><path class="cls-1" d="M75.29,12.67V35.38h6.58V12.67Z"/><path class="cls-1" d="M100.48,25.34a6.67,6.67,0,0,0,3.71-2.06,6.09,6.09,0,0,0,1.62-4.37V12.67H99.36v6.72A1.52,1.52,0,0,1,98,21l-5-8.3H84.32V35.38h6.29V19.89h.15L102,40.64h7Z"/><path class="cls-1" d="M84.24,40.42V53.8h6.07V40.42Zm8.49,0V56.65H81.87V40.42H75.48v22H99.07v-22Z"/></g></g></svg>