<svg xmlns="http://www.w3.org/2000/svg" viewBox="0 0 103.55 52.98"><defs><style>.cls-1{fill:#252626;}</style></defs><g id="Layer_2" data-name="Layer 2"><g id="Design"><path class="cls-1" d="M70.91,24.66H65.82L59.68,13.29h-.11V24.66H55V8h6.24l3.63,6.09a1.11,1.11,0,0,0,1-1.16V8h4.67v4.58a4.49,4.49,0,0,1-1.18,3.21,4.82,4.82,0,0,1-2.67,1.51Z"/><path class="cls-1" d="M73.77,45.63H54.87V29h4.62v12.3h9.7V29h4.58Zm-7.26-6.54H62.12V29h4.39Z"/><path class="cls-1" d="M80.38,33.5V45.63H75.63V29h15.2V40.25a7.49,7.49,0,0,1-.38,2.49,4.64,4.64,0,0,1-1.1,1.78,4.44,4.44,0,0,1-1.76,1.07,7,7,0,0,1-2.33.35,6,6,0,0,1-2.43-.42V41.26a2.87,2.87,0,0,0,1.25.3c1.33,0,2-.59,2-1.75V33.5Z"/><path class="cls-1" d="M91.75,33.5V25.31h4.76V29h7V39.53a6.37,6.37,0,0,1-1.73,4.67,6.14,6.14,0,0,1-4.57,1.74,5.79,5.79,0,0,1-2.41-.42V41.29a3.72,3.72,0,0,0,1.6.23,2.19,2.19,0,0,0,1.7-.74,2.59,2.59,0,0,0,.64-1.8V33.5Z"/><path class="cls-1" d="M48.21,45.63V33.5H43.5v7.26a5.13,5.13,0,0,1-1.59,4.11A4.93,4.93,0,0,1,38.5,46a5.62,5.62,0,0,1-2.79-.51V41.36a2.59,2.59,0,0,0,1.45.41c1,0,1.55-.48,1.55-1.45V33.5H36V29H53v-4.3H48.32V8H53V0H0V53H53V45.63ZM32.79,20.11h7.57A1.42,1.42,0,0,0,42,18.49v-6h-4.4V17H32.79V8h14V18.7q0,6-5.7,6H32.79ZM16.67,8H31.3V18.91a6.23,6.23,0,0,1-1.51,4.48A5.37,5.37,0,0,1,25.73,25a4.88,4.88,0,0,1-2.07-.42V20.5a1.93,1.93,0,0,0,.89.23c1.33,0,2-.73,2-2.17v-6H16.67Zm4.89,7.5,0,12.35H16.84l0-12.35Zm.07,33.45H16.8V29h4.83Zm12.92-9.13a6.12,6.12,0,0,1-1.32,4.12A5.33,5.33,0,0,1,29,45.63H23V41H28q1.83,0,1.83-1.95V33.5H23V28.92H34.55Z"/></g></g></svg>