<svg xmlns="http://www.w3.org/2000/svg" viewBox="0 0 596.9 170.37"><defs><style>.cls-1{fill:#2c5b67;}.cls-2{fill:#3e8698;}</style></defs><title>logoMenu</title><g id="Layer_2" data-name="Layer 2"><g id="Layer_1-2" data-name="Layer 1"><path class="cls-1" d="M55.93,85.91H49.3V59.6H33.23V52.73h22.7Z"/><path class="cls-1" d="M67.92,71.46H61.25V52.73h6.67Z"/><path class="cls-1" d="M103.47,73.77q0,5.94-3.14,9.33t-8.68,3.44a9.94,9.94,0,0,1-4.11-.63V79.32a8.74,8.74,0,0,0,3.73.7,5.22,5.22,0,0,0,3.87-1.72,5.79,5.79,0,0,0,1.66-4.18V59.6h-17V85.91H73.17V52.73h30.3Z"/><path class="cls-1" d="M145.55,72.62q0,13.29-12.2,13.29H109.24V52.73h6.57v26.8h17.06q6,0,6-6.84v-20h6.67Zm-15,2H124.1V52.73h6.42Z"/><path class="cls-1" d="M189.36,85.91H182.8V59.6H162.35V52.73h27Zm-20.35,0h-6.66V68H169Z"/><path class="cls-1" d="M201.66,85.91H195V52.73h6.67Z"/><path class="cls-1" d="M214,85.91h-6.67V52.73H214Z"/><path class="cls-1" d="M232.79,85.91H217.45V79h8.71V59.6h-7.29V52.73h13.92Z"/><path class="cls-1" d="M36.31,123.5q0,13.29-12.2,13.29H0V103.61H6.56v26.8H23.63q6,0,6-6.84v-20h6.67Zm-15,2H14.85V103.61h6.43Z"/><path class="cls-1" d="M72.24,124.65q0,5.94-3.15,9.33t-8.67,3.44a9.87,9.87,0,0,1-4.11-.63V130.2a8.71,8.71,0,0,0,3.73.7,5.22,5.22,0,0,0,3.87-1.72A5.79,5.79,0,0,0,65.57,125V110.48h-17v26.31H41.94V103.61h30.3Z"/><path class="cls-1" d="M114.31,123.5q0,13.29-12.19,13.29H78V103.61h6.56v26.8h17.07q6,0,6-6.84v-20h6.66Zm-15,2H92.86V103.61h6.43Z"/><path class="cls-1" d="M163.62,136.79h-6.57V110.48H142.89v14.88q0,12.06-10.4,12.06a7.69,7.69,0,0,1-3.38-.63V130.2a7,7,0,0,0,3,.7q4.11,0,4.11-5.16V110.48h-5.87v-6.87h33.23Z"/><path class="cls-1" d="M175.61,122.34h-6.67V103.61h6.67Z"/><path class="cls-1" d="M205.77,136.79H178.38v-7h16.27V110.48H179.24v-6.87h22v26.2h4.53Z"/><path class="cls-1" d="M236,136.79h-27.4v-7h16.27V110.48h-15.4v-6.87h22v26.2H236Z"/><path class="cls-2" d="M491.91,79.29H475.56L455.81,42.74h-.34V79.29H440.85V25.68h20.09L472.6,45.29c2.12-.49,3.19-1.74,3.19-3.74V25.68h15V40.41A14.43,14.43,0,0,1,487,50.73a15.35,15.35,0,0,1-8.59,4.87Z"/><path class="cls-2" d="M501.12,146.72H440.35V93.12h14.84v39.55h31.2V93.12h14.73Zm-23.33-21H463.67V93.12h14.12Z"/><path class="cls-2" d="M522.39,107.74v39H507.1V93.12H556v36.32a23.76,23.76,0,0,1-1.23,8,15.16,15.16,0,0,1-3.54,5.72,14.7,14.7,0,0,1-5.64,3.43,23.29,23.29,0,0,1-7.51,1.13,19.23,19.23,0,0,1-7.81-1.36V132.67a9.26,9.26,0,0,0,4,1q6.42,0,6.42-5.61V107.74Z"/><path class="cls-2" d="M559,107.74V81.39h15.3V93.12H596.9v34q0,9.42-5.58,15t-14.68,5.61a18.57,18.57,0,0,1-7.75-1.36v-13.6c.85.49,2.56.74,5.13.74a7,7,0,0,0,5.47-2.38,8.37,8.37,0,0,0,2.06-5.78V107.74Z"/><path class="cls-2" d="M418.92,146.72v-39H403.79v23.34q0,8.79-5.1,13.2-4.2,3.75-11,3.74c-4.2,0-7.18-.55-9-1.64V133a8.3,8.3,0,0,0,4.65,1.3c3.32,0,5-1.55,5-4.64V107.74h-8.62V93.12h54.51V79.29h-15V25.68h15V0H263.9V170.37H434.27V146.72Zm-49.57-82h24.33q5.13,0,5.13-5.22V40.3H384.64V54.81H369.35V25.68h45V60.13q0,19.16-18.3,19.16H369.35Zm-51.84-39h47V60.81q0,9.3-4.85,14.39t-13.06,5.11A15.57,15.57,0,0,1,340,79v-13a6,6,0,0,0,2.84.74q6.42,0,6.42-7V40.3H317.51Zm15.73,24.14.09,39.71H318L318,49.82Zm.22,107.55H317.93V93.12h15.53ZM375,128q0,8.28-4.25,13.26-4.75,5.44-13.6,5.44H337.88V132h15.93q5.9,0,5.89-6.29v-18H337.88V93H375Z"/></g></g></svg>