<svg xmlns="http://www.w3.org/2000/svg" viewBox="0 0 32.75 39.98"><defs><style>.cls-1{fill:#fff;}</style></defs><title>accessibility</title><g id="Layer_2" data-name="Layer 2"><g id="Layer_1-2" data-name="Layer 1"><path class="cls-1" d="M16.27,4.1a4.1,4.1,0,1,1,4.09,4.1,4.08,4.08,0,0,1-4.09-4.1Zm4,33.26a9.83,9.83,0,0,1-9.35-6.93L9.55,33.8A12.46,12.46,0,1,0,25.12,16v3a9.82,9.82,0,0,1-4.86,18.38ZM2,31.35A2,2,0,0,0,2,35.3H7.2L10.11,28h8.77a1,1,0,0,0,.2,0c.06,0,.13,0,.2,0a4.21,4.21,0,0,0,4.2-4.21V13.26c0-2.31-.79-4.2-3.11-4.2-3.4,0-3.79,6-3.79,6H9.76a1.64,1.64,0,1,0,0,3.28h6.82v5H9.4a2.33,2.33,0,0,0-2.19,1.55c-.5,1.35-2.29,6.46-2.29,6.46Z"/></g></g></svg>