<svg xmlns="http://www.w3.org/2000/svg" viewBox="0 0 61.66 36.21"><defs><style>.cls-1{fill:#fff;}</style></defs><title>EyeOn</title><g id="Layer_2" data-name="Layer 2"><g id="Layer_1-2" data-name="Layer 1"><path class="cls-1" d="M30.39,36.21C19.8,36.21,9.63,30.3.19,18.66a.92.92,0,0,1,0-1.08A52.37,52.37,0,0,1,8.86,8.8a44.76,44.76,0,0,1,9.81-6A31.44,31.44,0,0,1,31.26,0C41.83,0,52,5.91,61.47,17.55a.92.92,0,0,1,0,1.08A52.06,52.06,0,0,1,52.8,27.4a44.67,44.67,0,0,1-9.82,6A31.25,31.25,0,0,1,30.39,36.21Zm.86-34.45C22.38,1.76,14.82,6.3,10,10.1a53.89,53.89,0,0,0-7.25,7l-.83,1,.83,1c8.74,10.22,18,15.4,27.6,15.4,8.87,0,16.43-4.54,21.21-8.34a52.68,52.68,0,0,0,7.25-7l.83-1-.83-1C50.11,6.94,40.82,1.76,31.25,1.76Z"/><path class="cls-1" d="M30.81,27.75a9.64,9.64,0,0,1,0-19.28.88.88,0,1,1,0,1.75,7.89,7.89,0,1,0,7.89,7.89.88.88,0,0,1,1.75,0A9.65,9.65,0,0,1,30.81,27.75Z"/></g></g></svg>