<svg xmlns="http://www.w3.org/2000/svg" viewBox="0 0 60.13 47.5"><defs><style>.cls-1{fill:#fff;}</style></defs><title>EyeOff</title><g id="Layer_2" data-name="Layer 2"><g id="Layer_1-2" data-name="Layer 1"><path class="cls-1" d="M29.64,41.38a28,28,0,0,1-5.71-.6.76.76,0,0,1-.52-.36.77.77,0,0,1-.12-.6.81.81,0,0,1,.79-.66l.17,0a26.41,26.41,0,0,0,5.45.57c6.32,0,12.71-2.31,19-6.87a52.63,52.63,0,0,0,8.76-8.13l.83-1-.83-1a57.21,57.21,0,0,0-8.1-7.87.85.85,0,0,1-.15-1.16.87.87,0,0,1,.66-.31.83.83,0,0,1,.52.18A60.58,60.58,0,0,1,60,23.22a.83.83,0,0,1,0,1,51.75,51.75,0,0,1-10.2,9.89A39.39,39.39,0,0,1,38.36,40,29.1,29.1,0,0,1,29.64,41.38Z"/><path class="cls-1" d="M7.13,47.5a.81.81,0,0,1-.58-.25.83.83,0,0,1,0-1.16l8.59-8.59-1.6-1A55.63,55.63,0,0,1,.17,24.27a.85.85,0,0,1,0-1A51.77,51.77,0,0,1,12.4,12c5.94-3.87,12-5.84,18.07-5.84a28.87,28.87,0,0,1,12,2.67l1,.43,9-9A.85.85,0,0,1,53,0a.79.79,0,0,1,.56.23.84.84,0,0,1,0,1.18L7.7,47.25A.79.79,0,0,1,7.13,47.5ZM30.44,7.74C24.76,7.74,19,9.62,13.3,13.33A50.93,50.93,0,0,0,2.69,22.74l-.83,1,.83,1a50.53,50.53,0,0,0,12.7,11l1,.57,6.45-6.45-.66-1a9.37,9.37,0,0,1,13-12.94l1,.65,6.11-6.11L40.1,9.57A26.82,26.82,0,0,0,30.44,7.74ZM30.07,16a7.75,7.75,0,0,0-7.75,7.75A7.47,7.47,0,0,0,23,26.8l.89,2L35.15,17.49l-2-.87A7.76,7.76,0,0,0,30.07,16Z"/></g></g></svg>