<svg xmlns="http://www.w3.org/2000/svg" viewBox="0 0 41.97 41.98"><defs><style>.cls-1{fill:#fff;}</style></defs><title>linkOn</title><g id="Layer_2" data-name="Layer 2"><g id="Layer_1-2" data-name="Layer 1"><path class="cls-1" d="M23,28.41a9.33,9.33,0,0,1-6.64-2.75.64.64,0,0,1-.18-.43.62.62,0,0,1,.6-.6.64.64,0,0,1,.43.18,8.21,8.21,0,0,0,11.6,0l9.61-9.62a8.11,8.11,0,0,0,2.39-5.8,8.2,8.2,0,0,0-14-5.8L19.43,11a.6.6,0,0,1-.42.18.64.64,0,0,1-.43-.18.61.61,0,0,1,0-.85l7.36-7.35A9.39,9.39,0,0,1,42,9.39,9.33,9.33,0,0,1,39.23,16l-9.62,9.62A9.34,9.34,0,0,1,23,28.41Z"/><path class="cls-1" d="M9.39,42a9.4,9.4,0,0,1-6.65-16l9-9a9.42,9.42,0,0,1,13.3,0,.59.59,0,0,1,.17.42.61.61,0,0,1-.17.43.63.63,0,0,1-.43.17.59.59,0,0,1-.42-.17,8.23,8.23,0,0,0-11.6,0l-9,9.05a8.2,8.2,0,0,0,11.6,11.6l6.22-6.23a.59.59,0,0,1,.42-.17.63.63,0,0,1,.43.17.61.61,0,0,1,0,.85L16,39.23A9.34,9.34,0,0,1,9.39,42Z"/><path class="cls-1" d="M26.2,41.2a.6.6,0,0,1-.6-.59V35.8a.6.6,0,1,1,1.2,0v4.81A.6.6,0,0,1,26.2,41.2Z"/><path class="cls-1" d="M34.2,38.2a.57.57,0,0,1-.42-.18l-3.4-3.39a.61.61,0,0,1,0-.85.63.63,0,0,1,.43-.17.59.59,0,0,1,.42.17l3.4,3.4a.6.6,0,0,1,0,.84A.6.6,0,0,1,34.2,38.2Z"/><path class="cls-1" d="M31,30a.59.59,0,0,1-.6-.59.6.6,0,0,1,.6-.61h4.8a.6.6,0,0,1,.6.61.59.59,0,0,1-.6.59Z"/><path class="cls-1" d="M13.4,8.41a.6.6,0,0,1-.6-.61V3A.6.6,0,0,1,14,3V7.8A.6.6,0,0,1,13.4,8.41Z"/><path class="cls-1" d="M8.6,10a.59.59,0,0,1-.42-.17l-3.4-3.4a.6.6,0,0,1,0-.84.57.57,0,0,1,.43-.18.56.56,0,0,1,.42.18L9,9a.56.56,0,0,1,.18.42A.6.6,0,0,1,9,9.83.59.59,0,0,1,8.6,10Z"/><path class="cls-1" d="M3.77,14.8a.6.6,0,1,1,0-1.19h4.8a.6.6,0,1,1,0,1.19Z"/></g></g></svg>