<svg xmlns="http://www.w3.org/2000/svg" viewBox="0 0 41.96 41.99"><defs><style>.cls-1{fill:#fff;}</style></defs><title>linkOff</title><g id="Layer_2" data-name="Layer 2"><g id="Layer_1-2" data-name="Layer 1"><path class="cls-1" d="M23,28.43a9.3,9.3,0,0,1-6.62-2.74.56.56,0,0,1-.18-.42.59.59,0,0,1,.17-.42.6.6,0,0,1,.43-.18.59.59,0,0,1,.42.17,8.21,8.21,0,0,0,11.6,0l9.59-9.64a8.22,8.22,0,0,0,0-11.6,8.21,8.21,0,0,0-11.59,0L19.42,11a.6.6,0,0,1-.42.18.64.64,0,0,1-.43-.18.59.59,0,0,1-.17-.42.63.63,0,0,1,.17-.43l7.34-7.37A9.4,9.4,0,0,1,39.23,16l-9.59,9.63A9.35,9.35,0,0,1,23,28.43Z"/><path class="cls-1" d="M9.39,42A9.4,9.4,0,0,1,2.74,26l9-9a9.42,9.42,0,0,1,13.3,0,.59.59,0,0,1,.17.42.58.58,0,0,1-.6.6.59.59,0,0,1-.42-.17,8.23,8.23,0,0,0-11.6,0l-9,9.05a8.2,8.2,0,0,0,11.6,11.6l6.22-6.23a.59.59,0,0,1,.42-.17.63.63,0,0,1,.43.17.61.61,0,0,1,0,.85L16,39.24A9.34,9.34,0,0,1,9.39,42Z"/></g></g></svg>