<svg xmlns="http://www.w3.org/2000/svg" viewBox="0 0 37.88 38.01"><defs><style>.cls-1{fill:#fff;}</style></defs><title>toPage</title><g id="Layer_2" data-name="Layer 2"><g id="Layer_1-2" data-name="Layer 1"><path class="cls-1" d="M13.25,1.23V1.16A1.22,1.22,0,0,0,11,.55C9.24,3,7.12,5.17,5.12,7.43,4.05,6.21,3,5,1.87,3.81A1,1,0,0,0,.28,5a27.78,27.78,0,0,0,4,5.06A1.22,1.22,0,0,0,6,10.1C7.4,8.5,8.8,6.88,10.2,5.27c.66-.75,1.33-1.5,2-2.25.27-.29.52-.59.76-.9C13,2,13,1.93,13,1.91a1,1,0,0,0,.27-.68Z"/><path class="cls-1" d="M37,5.43c-3.3-.51-6.59-.1-9.91-.25S20.12,4,17.4,6a.48.48,0,0,0,.11.86c2.66.91,6,.55,8.86.71,3.32.18,6.7-.3,10,.21v0c1.53.37,2.18-2.1.65-2.33Z"/><path class="cls-1" d="M11.27,13.73a56.27,56.27,0,0,0-6,7.47C4,20,2.79,18.66,1.5,17.46A.88.88,0,0,0,.12,18.52a25.64,25.64,0,0,0,4.42,5.33,1.23,1.23,0,0,0,1.89-.24c2.16-2.81,4.73-5.51,6.6-8.53a1.12,1.12,0,0,0-1.76-1.35Z"/><path class="cls-1" d="M36.6,18.35c-6.08-.28-12.46-.82-18.5,0a.85.85,0,0,0,0,1.62c6,.86,12.26.59,18.31.8,1.44.38,2-2.35.19-2.43Z"/><path class="cls-1" d="M13.68,27.31l0-.12a1.2,1.2,0,0,0-1.78-1c-1.37.73-2.24,2.89-3,4.17-.94,1.49-1.84,3-2.72,4.54C4.69,33.46,3.26,32,1.73,30.73A.9.9,0,0,0,.46,32c1.59,2,3.36,3.8,5.09,5.66a1.2,1.2,0,0,0,1.87-.24c.94-1.6,1.86-3.2,2.84-4.77a27.44,27.44,0,0,1,2.79-4.35,1.11,1.11,0,0,0,.63-1Z"/><path class="cls-1" d="M36.38,31.1c-5.93-.6-12.13-1.08-18.06-.32a1,1,0,0,0,0,2c6,.28,12,.14,18.06.72,1.56.15,1.55-2.29,0-2.44Z"/></g></g></svg>