<svg xmlns="http://www.w3.org/2000/svg" viewBox="0 0 18.02 18.02"><defs><style>.cls-1{fill:#252626;fill-rule:evenodd;}</style></defs><g id="Layer_2" data-name="Layer 2"><g id="Design"><path class="cls-1" d="M4.35,18.22A4.15,4.15,0,0,1,.2,14.07V4.35A4.15,4.15,0,0,1,4.35.2h9.72a4.15,4.15,0,0,1,4.15,4.15v9.72a4.15,4.15,0,0,1-4.15,4.15ZM4.35.89A3.46,3.46,0,0,0,.89,4.35v9.72a3.46,3.46,0,0,0,3.46,3.46h9.72a3.47,3.47,0,0,0,3.47-3.46V4.35A3.47,3.47,0,0,0,14.07.89ZM9.21,15A5.75,5.75,0,1,1,15,9.21,5.76,5.76,0,0,1,9.21,15Zm0-10.66a4.92,4.92,0,1,0,4.91,4.92A4.92,4.92,0,0,0,9.21,4.29ZM15,4.17a.76.76,0,1,1,.75-.75A.76.76,0,0,1,15,4.17Z" transform="translate(-0.2 -0.2)"/></g></g></svg>