<svg xmlns="http://www.w3.org/2000/svg" viewBox="0 0 15.42 15.41"><defs><style>.cls-1{fill:#fff;fill-rule:evenodd;}</style></defs><title>instagram</title><g id="Layer_2" data-name="Layer 2"><g id="Layer_1-2" data-name="Layer 1"><path class="cls-1" d="M3.55,15.41A3.55,3.55,0,0,1,0,11.86V3.55A3.55,3.55,0,0,1,3.55,0h8.31a3.56,3.56,0,0,1,3.56,3.55v8.31a3.56,3.56,0,0,1-3.56,3.55ZM3.55.59a3,3,0,0,0-3,3v8.31a3,3,0,0,0,3,3h8.31a3,3,0,0,0,3-3V3.55a3,3,0,0,0-3-3Zm4.15,12A4.92,4.92,0,1,1,12.61,7.7,4.93,4.93,0,0,1,7.7,12.62Zm0-9.12a4.2,4.2,0,1,0,4.2,4.2A4.2,4.2,0,0,0,7.7,3.5Zm5-.1a.65.65,0,0,1,0-1.3.65.65,0,0,1,0,1.3Z"/></g></g></svg>