<svg xmlns="http://www.w3.org/2000/svg" viewBox="0 0 64.54 74.1"><defs><style>.cls-1{fill:#fff;}</style></defs><title>whitePdf</title><g id="Layer_2" data-name="Layer 2"><g id="Layer_1-2" data-name="Layer 1"><path class="cls-1" d="M4.68,74.1A4.68,4.68,0,0,1,0,69.43V4.66A4.68,4.68,0,0,1,4.68,0H37.1a.54.54,0,0,1,.54.54V16.68a3.6,3.6,0,0,0,3.6,3.59H57.45a.54.54,0,0,1,.54.54V42a.54.54,0,0,1-.54.54H19.85a3.6,3.6,0,0,0-3.6,3.59V60.39A3.6,3.6,0,0,0,19.85,64h37.6a.54.54,0,0,1,.54.54v4.92a4.68,4.68,0,0,1-4.68,4.67Zm0-73a3.59,3.59,0,0,0-3.6,3.58V69.43A3.6,3.6,0,0,0,4.68,73H53.31a3.6,3.6,0,0,0,3.6-3.59V65.05H19.85a4.68,4.68,0,0,1-4.68-4.66V46.15a4.68,4.68,0,0,1,4.68-4.67H56.91V21.35H41.24a4.68,4.68,0,0,1-4.68-4.67V1.08Z"/><path class="cls-1" d="M41.24,21.35a4.68,4.68,0,0,1-4.68-4.67V.54A.53.53,0,0,1,36.9,0a.45.45,0,0,1,.2,0,.57.57,0,0,1,.39.16l20.27,20.2a.56.56,0,0,1,.23.45.54.54,0,0,1-.54.54Zm-3.6-4.67a3.6,3.6,0,0,0,3.6,3.59h14.9L37.64,1.84Z"/><path class="cls-1" d="M19.85,65.05a4.68,4.68,0,0,1-4.68-4.66V46.15a4.68,4.68,0,0,1,4.68-4.67h40a4.68,4.68,0,0,1,4.68,4.67V60.39a4.68,4.68,0,0,1-4.68,4.66Zm0-22.49a3.6,3.6,0,0,0-3.6,3.59V60.39A3.6,3.6,0,0,0,19.85,64h40a3.6,3.6,0,0,0,3.6-3.58V46.15a3.6,3.6,0,0,0-3.6-3.59Z"/><path class="cls-1" d="M24.45,60a.54.54,0,0,1-.54-.54V48.82a.54.54,0,0,1,.54-.54H29c1.48,0,2.55,1.45,2.55,3.45S30.47,55.18,29,55.18H25v4.29A.54.54,0,0,1,24.45,60ZM25,54.1h4A1.2,1.2,0,0,0,30,53.45a3.34,3.34,0,0,0,.42-1.72c0-1.18-.5-2.37-1.47-2.37H25Z"/><path class="cls-1" d="M36.37,60a.54.54,0,0,1-.54-.54V48.82a.54.54,0,0,1,.54-.54h4.54c2.45,0,4.16,2.41,4.16,5.86a7.84,7.84,0,0,1-1,4A3.67,3.67,0,0,1,40.91,60Zm.54-1.08h4a2.58,2.58,0,0,0,2.26-1.4A6.83,6.83,0,0,0,44,54.14c0-1.92-.83-4.78-3.09-4.78h-4Z"/><path class="cls-1" d="M50,60a.54.54,0,0,1-.54-.54V48.82a.54.54,0,0,1,.54-.54h6.46a.54.54,0,0,1,0,1.08H50.48V59.47A.54.54,0,0,1,50,60Z"/><path class="cls-1" d="M50,54.17a.54.54,0,0,1-.54-.54.54.54,0,0,1,.54-.54h4.48a.54.54,0,0,1,.54.54.55.55,0,0,1-.54.54Z"/></g></g></svg>