<svg xmlns="http://www.w3.org/2000/svg" viewBox="0 0 18.02 18.02"><defs><style>.cls-1{fill:#666;fill-rule:evenodd;}</style></defs><title>instagram</title><g id="Layer_2" data-name="Layer 2"><g id="Layer_1-2" data-name="Layer 1"><path class="cls-1" d="M4.15,18A4.15,4.15,0,0,1,0,13.87V4.16A4.15,4.15,0,0,1,4.15,0h9.72A4.15,4.15,0,0,1,18,4.16v9.71A4.15,4.15,0,0,1,13.87,18ZM4.15.69A3.47,3.47,0,0,0,.69,4.16v9.71a3.47,3.47,0,0,0,3.46,3.47h9.72a3.48,3.48,0,0,0,3.47-3.47V4.16A3.48,3.48,0,0,0,13.87.69ZM9,14.75A5.74,5.74,0,1,1,14.75,9,5.76,5.76,0,0,1,9,14.75ZM9,4.1A4.91,4.91,0,1,0,13.92,9,4.9,4.9,0,0,0,9,4.1ZM14.84,4a.75.75,0,0,1-.76-.75.76.76,0,1,1,1.51,0A.75.75,0,0,1,14.84,4Z"/></g></g></svg>