<svg xmlns="http://www.w3.org/2000/svg" viewBox="0 0 16.47 12.91"><defs><style>.cls-1{fill:#353535;}</style></defs><title>youtube_1</title><g id="Layer_2" data-name="Layer 2"><g id="Layer_1-2" data-name="Layer 1"><path class="cls-1" d="M15.43,1C14.68.15,12.83.1,10.26,0l-1,0q-1,0-2,0l-1,0C3.65.1,1.79.15,1,1S0,2.3,0,6.46.38,11.23,1,12s2.61.86,5.17.92l1,0h2l1,0c2.57-.06,4.42-.1,5.17-.92s1-1.33,1-5.49S16.09,1.69,15.43,1ZM9.23,12.4h-2c-2.91-.09-5.16,0-5.87-.81C.84,11,.46,10.54.46,6.46s.38-4.56.91-5.14c.71-.76,3-.72,5.87-.8l1,0,1,0c2.92.08,5.17,0,5.87.8.54.58.91,1.06.91,5.14s-.37,4.56-.91,5.13C14.4,12.36,12.15,12.31,9.23,12.4Z"/><path class="cls-1" d="M10.7,5.88,7.11,3.59A.59.59,0,0,0,6.8,3.5a.63.63,0,0,0-.6.65V8.72a.63.63,0,0,0,.6.65.59.59,0,0,0,.31-.09L10.7,7a.69.69,0,0,0,0-1.12Zm-3.9,3a.14.14,0,0,1-.13-.15V4.15A.14.14,0,0,1,6.8,4a.11.11,0,0,1,.07,0l3.59,2.28a.15.15,0,0,1,0,.25L6.87,8.85A.1.1,0,0,1,6.8,8.87Z"/></g></g></svg>