<svg xmlns="http://www.w3.org/2000/svg" viewBox="0 0 103.5 120.75"><defs><style>.cls-1{fill:none;stroke:#3d8597;stroke-miterlimit:10;stroke-width:1.5px;}.cls-2{fill:#3d8597;}.cls-3{font-size:18px;fill:#fff;font-family:Heebo-Medium, Heebo;font-weight:500;}</style></defs><title>1</title><g id="Layer_2" data-name="Layer 2"><g id="Layer_1-2" data-name="Layer 1"><circle class="cls-1" cx="51.75" cy="69" r="51"/><polyline class="cls-1" points="62.38 82.71 69.1 82.71 69.1 93.9 25.45 93.9"/><line class="cls-1" x1="25.45" y1="88.31" x2="63.5" y2="88.31"/><line class="cls-1" x1="69.1" y1="98.38" x2="69.1" y2="93.9"/><polyline class="cls-1" points="46.06 56.98 54.55 48.02 78.05 48.02"/><path class="cls-1" d="M62.38,69.28H68a4.47,4.47,0,0,0,4.47-4.47h5.6"/><line class="cls-1" x1="25.45" y1="56.98" x2="51.19" y2="56.97"/><line class="cls-1" x1="59.02" y1="68.16" x2="59.02" y2="88.31"/><line class="cls-1" x1="78.05" y1="68.16" x2="78.05" y2="44.67"/><path class="cls-1" d="M64.62,48,50.07,62.57a3.17,3.17,0,0,0,4.48,4.48l5.59-5.6H68A4.47,4.47,0,0,0,72.45,57"/><circle class="cls-2" cx="52.05" cy="16" r="16"/><text class="cls-3" transform="translate(46.45 21.68)">1</text></g></g></svg>