<svg xmlns="http://www.w3.org/2000/svg" viewBox="0 0 103.5 120.75"><defs><style>.cls-1,.cls-2{fill:none;stroke:#3d8597;stroke-miterlimit:10;}.cls-1{stroke-width:1.37px;}.cls-2{stroke-width:1.5px;}.cls-3{fill:#3d8597;}.cls-4{font-size:18px;fill:#fff;font-family:Heebo-Medium, Heebo;font-weight:500;}</style></defs><title>2</title><g id="Layer_2" data-name="Layer 2"><g id="Layer_1-2" data-name="Layer 1"><path class="cls-1" d="M42.5,84.29l-7.35,3.87A9.71,9.71,0,0,1,22.07,84.1h0A9.7,9.7,0,0,1,26.13,71l7.34-3.88Z"/><path class="cls-1" d="M42.5,84.29c12.25-6.45,30-2.49,30-2.49l-2.91-5.51L62.48,62.82l-10-19s-6.76,16.86-19,23.3"/><path class="cls-1" d="M41.51,84.81,41,97.45a2.06,2.06,0,0,1-4.06.44l-2.44-9.42"/><path class="cls-1" d="M60.13,57.74a5.6,5.6,0,0,1,7.55,2.34h0a5.6,5.6,0,0,1-2.34,7.55"/><path class="cls-1" d="M50.94,58a47.42,47.42,0,0,1-8.23,9.63"/><path class="cls-1" d="M27.21,77.34a9.7,9.7,0,0,1,2.62-2l1.57-.83"/><line class="cls-1" x1="74.41" y1="56.54" x2="81.63" y2="52.73"/><line class="cls-1" x1="63.26" y1="48.8" x2="65.68" y2="41.01"/><line class="cls-1" x1="82.27" y1="72.52" x2="74.48" y2="70.11"/><line class="cls-1" x1="68.42" y1="53.59" x2="71" y2="49.9"/><line class="cls-1" x1="73.54" y1="63.03" x2="78.02" y2="63.6"/><line class="cls-1" x1="36.27" y1="65.44" x2="45.49" y2="82.95"/><circle class="cls-2" cx="51.75" cy="69" r="51"/><circle class="cls-3" cx="52.05" cy="16" r="16"/><text class="cls-4" transform="translate(46.31 21.68)">2</text></g></g></svg>