<svg xmlns="http://www.w3.org/2000/svg" viewBox="0 0 103.5 120.75"><defs><style>.cls-1{fill:none;stroke:#3d8597;stroke-miterlimit:10;stroke-width:1.5px;}.cls-2{fill:#3d8597;}.cls-3{font-size:18px;fill:#fff;font-family:Heebo-Medium, Heebo;font-weight:500;}</style></defs><title>3</title><g id="Layer_2" data-name="Layer 2"><g id="Layer_1-2" data-name="Layer 1"><path class="cls-1" d="M36.16,89.2a37.38,37.38,0,0,1,9.05,2.73c3.36,1.53,8.6,2.26,13.26,2.26,5.33,0,13.61-.64,14.27-7.74,2-1.56,3.35-4.62,2.5-7.12,1.52-2,2.41-5.32.64-7.45,3.85-6.64-8.71-8.73-15.54-9.19A2.93,2.93,0,0,1,58,58.36l0,0c.55-1,1.64-3,2.12-4,2.72-5.65.14-12.09-4-11.94-2.79.1-3.58,2.42-3.84,4.28A18,18,0,0,1,48.18,56a50.05,50.05,0,0,0-6.55,8.78c-1,1.61-3.39,2.39-5.66,2.71"/><rect class="cls-1" x="26.64" y="64.03" width="9.33" height="27.32" rx="2.2"/><circle class="cls-1" cx="51.75" cy="69" r="51"/><circle class="cls-2" cx="51.75" cy="16" r="16"/><text class="cls-3" transform="translate(46.45 21.68)">3</text></g></g></svg>