<svg xmlns="http://www.w3.org/2000/svg" viewBox="0 0 103.5 120.75"><defs><style>.cls-1,.cls-2{fill:none;stroke:#3d8597;stroke-miterlimit:10;}.cls-1{stroke-width:1.38px;}.cls-2{stroke-width:1.5px;}.cls-3{fill:#3d8597;}.cls-4{font-size:18px;fill:#fff;font-family:Heebo-Medium, Heebo;font-weight:500;}</style></defs><title>4</title><g id="Layer_2" data-name="Layer 2"><g id="Layer_1-2" data-name="Layer 1"><path class="cls-1" d="M42.91,87.94,73,57.82a8,8,0,0,0,0-11.28h0a8,8,0,0,0-11.28,0l-30,30a8.75,8.75,0,0,0-2.52,5.28l-1.08,10,9.77-1.35A8.77,8.77,0,0,0,42.91,87.94Z"/><path class="cls-1" d="M70.72,48.85a4.67,4.67,0,0,1,1.38,3.33"/><line class="cls-1" x1="33.13" y1="75.16" x2="44.41" y2="86.44"/><line class="cls-1" x1="29.05" y1="83.28" x2="36.41" y2="90.64"/><line class="cls-1" x1="40.96" y1="74.36" x2="58.23" y2="57.08"/><line class="cls-1" x1="59.21" y1="49.08" x2="70.49" y2="60.36"/><line class="cls-1" x1="45.05" y1="78.45" x2="62.33" y2="61.18"/><line class="cls-1" x1="28.13" y1="96.55" x2="75.37" y2="96.55"/><line class="cls-1" x1="46.4" y1="91.78" x2="69.01" y2="91.78"/><line class="cls-1" x1="51.16" y1="87.02" x2="63.45" y2="87.02"/><circle class="cls-2" cx="51.75" cy="69" r="51"/><circle class="cls-3" cx="51.75" cy="16" r="16"/><text class="cls-4" transform="translate(46.45 21.68)">4</text></g></g></svg>