<svg xmlns="http://www.w3.org/2000/svg" viewBox="0 0 340.07 369.86"><defs><style>.cls-1{fill:#bd1825;}.cls-2{fill:#231f20;}.cls-3,.cls-4{fill:none;stroke-miterlimit:10;}.cls-3{stroke:#bd1823;stroke-width:2px;}.cls-4{stroke:#848080;stroke-width:0.5px;}.cls-5{fill:#8e8e8e;}</style></defs><title>404</title><g id="Layer_2" data-name="Layer 2"><g id="Layer_1-2" data-name="Layer 1"><path class="cls-1" d="M87.94,191.72h15.12v8.72H87.94v32.2H78.63v-32.2H29.76V192.3L76.21,89.22H87.94Zm-9.31,0V123.26q0-11.15.78-23.08h-.59l-7.17,18.23L39.46,191.72Z"/><path class="cls-1" d="M173.82,88.84q16,0,23.56,17.94t7.56,54.39q0,36.47-7.85,54.93t-23.71,18.48q-15.85,0-23.32-17.07-7.27-17.16-7.27-55.95Q142.79,88.84,173.82,88.84Zm0,9.11q-11,0-16,15.61t-5.09,47.95q0,32.34,5.14,48.15t16,15.8q21.23,0,21.23-63.75T173.82,98Z"/><path class="cls-1" d="M301.61,191.72h15.13v8.72H301.61v32.2H292.3v-32.2H243.43V192.3L289.88,89.22h11.73Zm-9.31,0V123.26q0-11.15.78-23.08h-.58l-7.18,18.23-32.19,73.31Z"/><path class="cls-2" d="M51.61,261.05v12.6q0,4.91-1.61,7.53a7.94,7.94,0,0,1-1.87,1.95,8.14,8.14,0,0,1-2.85,1.33l6.63,11H49L36.18,274.15a4.62,4.62,0,0,0-2.33.67A6.05,6.05,0,0,0,31.14,278a15.38,15.38,0,0,0-.82,5.54v12h-2.6v-12a16.53,16.53,0,0,1,1.14-6.92,11.84,11.84,0,0,1,1.25-2.05,7.4,7.4,0,0,1,4.72-2.64l-6.52-10.84H31.2l12.72,21.17a5.29,5.29,0,0,0,1.57-.54,6,6,0,0,0,2.73-2.87,13.32,13.32,0,0,0,.79-5.19V261.05Z"/><path class="cls-2" d="M84,295.49H60.44v-2.35H80.78L72.05,280l-11.5-18.95h2.86l10.21,17.08,1.46,2.19a19.2,19.2,0,0,0,6-12.49l.67-6.78h2.38l-.63,6.78a23.3,23.3,0,0,1-2.23,8,21.38,21.38,0,0,1-4.88,6.55L84,293.8Z"/><path class="cls-2" d="M107.61,260.51a8.79,8.79,0,0,1,7.23,3.05q2.47,3,2.48,8.27v23.66H107.11v-2.35h7.53V271.83a10.14,10.14,0,0,0-1.92-6.51,6.24,6.24,0,0,0-5.11-2.41,13.87,13.87,0,0,0-4,.54,9.13,9.13,0,0,0-2.83,1.29,12.65,12.65,0,0,0-1.72,1.53,5,5,0,0,0-.94,1.29l-.27.53-2.57,27.4h-2.7l2.54-26.83a10.22,10.22,0,0,0-.24-3.18l-.16-.67a6.16,6.16,0,0,0-.22-.72c-.12-.32-.19-.53-.23-.64s-.24-.7-.5-1.36l-.45-1.2h2.89a22,22,0,0,1,1.3,3.76h.34a6.86,6.86,0,0,1,1.34-1.35,12.33,12.33,0,0,1,2-1.35,14.1,14.1,0,0,1,2.76-1A13.89,13.89,0,0,1,107.61,260.51Z"/><path class="cls-2" d="M137,260.51a6.43,6.43,0,0,1,5.25,2.18,8.6,8.6,0,0,1,1.81,5.7V286.6a33.6,33.6,0,0,1-.27,4c-.18,1.48-.35,2.65-.53,3.52l-.24,1.34H128.5v-2.35h12.1a32.12,32.12,0,0,0,.71-6.54V268.39a6.76,6.76,0,0,0-1.07-4,3.8,3.8,0,0,0-3.29-1.51,24.05,24.05,0,0,0-4.55.46v-2.46A23.88,23.88,0,0,1,137,260.51Z"/><path class="cls-2" d="M196,261.05v12.6q0,4.91-1.62,7.53a7.58,7.58,0,0,1-1.87,1.95,8,8,0,0,1-2.85,1.33l6.63,11h-2.92l-12.8-21.34a4.63,4.63,0,0,0-2.34.67,6.08,6.08,0,0,0-2.7,3.17,15.38,15.38,0,0,0-.82,5.54v12h-2.6v-12a16.53,16.53,0,0,1,1.14-6.92,11.78,11.78,0,0,1,1.24-2.05,7.43,7.43,0,0,1,4.72-2.64l-6.52-10.84h2.89l12.73,21.17a5.32,5.32,0,0,0,1.56-.54,6.12,6.12,0,0,0,2.74-2.87,13.32,13.32,0,0,0,.79-5.19V261.05Z"/><path class="cls-2" d="M206.56,260.89h18.59v3l-5.09,18-2.42,13.54h-2.75l2.36-13.19,5.38-18.85H203.86V253.6h2.7Z"/><path class="cls-2" d="M260.3,283.71a8.89,8.89,0,0,1-7-3.11,11.66,11.66,0,0,1-2.76-8.05,12.31,12.31,0,0,1,1.09-5.26,10.29,10.29,0,0,1,2.89-3.79,13.08,13.08,0,0,1,8.46-3,11.29,11.29,0,0,1,9.47,4.35c2.24,2.91,3.36,7.37,3.36,13.41v30.35h-2.7V278.27q0-8.79-3.16-12.47a8,8,0,0,0-2.91-2.11,9.89,9.89,0,0,0-4-.78,11.85,11.85,0,0,0-4,.63,8.65,8.65,0,0,0-2.88,1.63,9.78,9.78,0,0,0-3.26,7.38,9.55,9.55,0,0,0,1.82,6.22,8.64,8.64,0,0,0,5.74,2.78l.37.05-.42,2.11Z"/><path class="cls-2" d="M308.77,261.05v2.05c-.61.23-1.16.46-1.63.68a9.2,9.2,0,0,0-1.51,1,6.07,6.07,0,0,0-1.34,1.39,8.24,8.24,0,0,0-1.19,4.59v24.78h-2.71V270.71a10.34,10.34,0,0,1,.39-2.91,7.07,7.07,0,0,1,.94-2.11,6.78,6.78,0,0,1,2-2.08l.37-.21H284.8v-2.35Z"/><polyline class="cls-3" points="314.69 76.07 314.69 60.52 339.07 60.52 339.07 54.89 314.69 45.2 314.69 19.23 279.67 19.23 279.67 32.06 202.42 1.09 107.97 44.25 61.05 27.97 1 54.58 1 60.52 20.09 60.48 20.09 76.24"/><rect class="cls-4" x="93.47" y="336.68" width="141.13" height="32.93" rx="3.12"/><path class="cls-5" d="M138.83,351.84l-4.6,2.19,4.6,1.93v.89l-5.66-2.49v-.58l5.66-2.81Z"/><path class="cls-5" d="M145.51,358.35a2.75,2.75,0,0,1-.59-.08v-.81l.48.06c.56,0,.84-.33.84-1v-5l-.83.08v-.83a24.68,24.68,0,0,1,2.87-.19,4.08,4.08,0,0,1,1.77.34,1.92,1.92,0,0,1,1,1.14,2.93,2.93,0,0,1,.14.93v5.3h-1V353c0-1-.7-1.57-2.1-1.57l-.93,0v5a2.15,2.15,0,0,1-.43,1.44A1.54,1.54,0,0,1,145.51,358.35Z"/><path class="cls-5" d="M154,355.7v-5h1v4l-.78,1Z"/><path class="cls-5" d="M157.33,350.65c.63-.06,1.37-.09,2.21-.09a2.68,2.68,0,0,1,1.87.55A2.41,2.41,0,0,1,162,353v4.54h.86v.76h-5.55v-.76H161V353a1.52,1.52,0,0,0-.41-1.24,2,2,0,0,0-1.26-.33q-.92,0-1.74.06l-.3,0Z"/><path class="cls-5" d="M170.48,352a2.93,2.93,0,0,1,.14.93v5.3h-1V353c0-1-.71-1.57-2.11-1.57-.62,0-1.3,0-2,.06l-.42,0v-.83c.92-.06,1.75-.09,2.51-.09a4.45,4.45,0,0,1,1.88.34A1.92,1.92,0,0,1,170.48,352Zm-4.43,6.23h-1v-4.84h1Z"/><path class="cls-5" d="M177,353.27a2.64,2.64,0,0,1,.25-1.17,2.41,2.41,0,0,1,.66-.86,2.94,2.94,0,0,1,.92-.5,3.18,3.18,0,0,1,1.08-.18,2.7,2.7,0,0,1,1.09.23,2.59,2.59,0,0,1,.92.7,3.12,3.12,0,0,1,.63,1.22,5.91,5.91,0,0,1,.23,1.76v6.7h-1v-6.7a5,5,0,0,0-.39-2.12,1.73,1.73,0,0,0-.61-.72,1.59,1.59,0,0,0-.89-.25,2.66,2.66,0,0,0-.84.12,1.67,1.67,0,0,0-.56.31,1.6,1.6,0,0,0-.35.46,2,2,0,0,0-.27,1,1.76,1.76,0,0,0,.36,1.2,1.88,1.88,0,0,0,1.13.54l.25.05-.15.73-.23,0a2.72,2.72,0,0,1-1.64-.77A2.37,2.37,0,0,1,177,353.27Z"/><path class="cls-5" d="M190.45,350.68v.67a1.57,1.57,0,0,0-1.21,1.69v5.23h-1V353a2.61,2.61,0,0,1,.08-.64,1.59,1.59,0,0,1,.2-.45,1.29,1.29,0,0,1,.44-.44l.08,0v0h-4.15v-.76Z"/><path class="cls-5" d="M193.08,350.68h4v.76l-1,3.88-.61,2.95h-1l.61-2.95,1-3.88h-4v-2.32h1Z"/></g></g></svg>