<svg xmlns="http://www.w3.org/2000/svg" viewBox="0 0 176.3 99.29"><defs><style>.cls-1,.cls-2{fill:#bd1823;}.cls-2{opacity:0.7;}.cls-3{fill:#fff;}</style></defs><title>calc</title><g id="Layer_2" data-name="Layer 2"><g id="Layer_1-2" data-name="Layer 1"><rect class="cls-1" x="0.46" y="11.74" width="169.47" height="75.01"/><rect class="cls-2" x="50.08" y="-40.26" width="75.01" height="169.48" transform="translate(35.93 128.02) rotate(-85.19)"/><rect class="cls-2" x="3.98" y="17.31" width="169.48" height="75.01" transform="translate(-4.28 7.63) rotate(-4.81)"/><path class="cls-3" d="M114,43.61h-2.73V32.09H114Z"/><path class="cls-3" d="M127.77,43.61h-9.85V41.53h4.45l2,.13v0l-2.51-3.13-4.07-6.4h3.06l3.21,5.19a5.48,5.48,0,0,0,.8-2.67l.21-2.52h2.7l-.19,2.13a8.91,8.91,0,0,1-.42,2.26c-.09.26-.21.55-.35.87a5.28,5.28,0,0,1-1.38,1.75l2.3,2.94Z"/><path class="cls-3" d="M131.89,43.61V32.29a19,19,0,0,1,2-.26c.9-.08,1.71-.12,2.45-.12a12.06,12.06,0,0,1,1.86.12,4.35,4.35,0,0,1,1.26.39,3.21,3.21,0,0,1,.84.59,2.19,2.19,0,0,1,.5.84,4.5,4.5,0,0,1,.24,1,8.64,8.64,0,0,1,.07,1.22v7.53h-2.74V36.07c0-1.38-.75-2.06-2.27-2.06q-.61,0-1.47.06v9.54Z"/><path class="cls-3" d="M147.66,32.09h6.07v1.76l-1.56,5.48-1,4.28h-2.65l1-4.28L151,34.17h-6.05V29.71h2.72Z"/><path class="cls-3" d="M27,54.05v4.21a4.71,4.71,0,0,1-.55,2.52,2.59,2.59,0,0,1-.63.66,2.65,2.65,0,0,1-1,.44l2.24,3.69h-1l-4.31-7.14a1.56,1.56,0,0,0-.79.23,2,2,0,0,0-.91,1.06,5,5,0,0,0-.28,1.85v4H19v-4a5.42,5.42,0,0,1,.38-2.31,3.54,3.54,0,0,1,.42-.69,2.55,2.55,0,0,1,1.59-.89l-2.2-3.62h1l4.29,7.08a1.46,1.46,0,0,0,.52-.18,1.94,1.94,0,0,0,.92-1,4.39,4.39,0,0,0,.27-1.74v-4.2Z"/><path class="cls-3" d="M31,54.05q2.61-.18,3.81-.18a15.64,15.64,0,0,1,1.79.07,4.64,4.64,0,0,1,1.15.3,2.67,2.67,0,0,1,.93.57,2.54,2.54,0,0,1,.6.94,3.82,3.82,0,0,1,.23,1.37v8.45h-.91V57.12a2.35,2.35,0,0,0-.63-1.79,2.73,2.73,0,0,0-1.63-.6,9.43,9.43,0,0,0-1.19-.06c-.49,0-1.14,0-1.93.06v8.09c0,1.84-.79,2.75-2.38,2.75a2.89,2.89,0,0,1-.6-.08v-.75a5.47,5.47,0,0,0,.6,0,1.31,1.31,0,0,0,1.08-.48,2.31,2.31,0,0,0,.39-1.47v-8L31,54.87Z"/><path class="cls-3" d="M46.82,53.87a2.15,2.15,0,0,1,1.77.73,2.83,2.83,0,0,1,.61,1.9v6.1A11.44,11.44,0,0,1,49.11,64c-.06.49-.12.88-.18,1.18l-.08.44H44v-.78h4.08a10.63,10.63,0,0,0,.24-2.19V56.5a2.22,2.22,0,0,0-.36-1.32,1.27,1.27,0,0,0-1.11-.51,8.09,8.09,0,0,0-1.53.15V54A7.8,7.8,0,0,1,46.82,53.87Z"/><path class="cls-3" d="M53.47,54.19a6.09,6.09,0,0,1,.82-.19,8,8,0,0,1,1.48-.12,4.42,4.42,0,0,1,1.64.31,3.67,3.67,0,0,1,1.28.82,4,4,0,0,1,.81,1.21,7,7,0,0,1,.57,3v1.61a6.86,6.86,0,0,1-.43,2.45,3.82,3.82,0,0,1-.92,1.43,3.57,3.57,0,0,1-1.72,1,5.32,5.32,0,0,1-1.23.14,9.5,9.5,0,0,1-1.31-.08,7.85,7.85,0,0,1-1-.16l-.32-.08v-1a6.29,6.29,0,0,0,1.12.33,7.19,7.19,0,0,0,1.4.15,3.45,3.45,0,0,0,1.16-.18,2.59,2.59,0,0,0,.86-.45,3.27,3.27,0,0,0,.61-.67,3.83,3.83,0,0,0,.41-.77,6.57,6.57,0,0,0,.23-.79,5.71,5.71,0,0,0,.16-1.31V59.17a5.61,5.61,0,0,0-.86-3.31,3.1,3.1,0,0,0-2.68-1.19,6.17,6.17,0,0,0-2,.36l-.38.12v-.84Z"/><path class="cls-3" d="M67.91,65.57H64.58l-1-11.52h.85L65,61a7.7,7.7,0,0,0,1.26-.42,4.61,4.61,0,0,0,.92-.58,2.82,2.82,0,0,0,.69-.84,7.56,7.56,0,0,0,.74-2.84l.22-2.27h.82l-.23,2.27a11.94,11.94,0,0,1-.38,2.16A5,5,0,0,1,68.32,60a3.79,3.79,0,0,1-1.27,1.08,7.13,7.13,0,0,1-1.9.65h0l.25,3h2.55A4.79,4.79,0,0,0,70.49,64a5.91,5.91,0,0,0,2-2.08,7.2,7.2,0,0,0,.93-3l.49-5h.82l-.49,5A8.36,8.36,0,0,1,73,62.68a8,8,0,0,1-1.26,1.49,5.46,5.46,0,0,1-1.7,1A5.67,5.67,0,0,1,67.91,65.57Z"/><path class="cls-3" d="M83,53.87a3,3,0,0,1,2.44,1,4.28,4.28,0,0,1,.83,2.77v7.91H82.79v-.78h2.54V57.66a3.37,3.37,0,0,0-.65-2.18A2.08,2.08,0,0,0,83,54.67a4.79,4.79,0,0,0-1.35.18,3.13,3.13,0,0,0-1,.43,4.3,4.3,0,0,0-.58.51,1.89,1.89,0,0,0-.32.44l-.09.18-.86,9.16H77.9l.85-9a3.15,3.15,0,0,0-.08-1.06c0-.1,0-.17,0-.22a1.68,1.68,0,0,0-.08-.25c0-.1-.06-.17-.07-.21s-.08-.23-.17-.46l-.15-.4h1a7.12,7.12,0,0,1,.44,1.26h.11a2.17,2.17,0,0,1,.46-.45,4,4,0,0,1,.68-.45,4.45,4.45,0,0,1,.93-.33A4.85,4.85,0,0,1,83,53.87Z"/><path class="cls-3" d="M96.81,54q1.39-.09,2.31-.09a12.42,12.42,0,0,1,1.51.07,4.76,4.76,0,0,1,1.15.3,2.87,2.87,0,0,1,.93.57,2.54,2.54,0,0,1,.6.94,3.82,3.82,0,0,1,.23,1.37v7.67h1.35v.78H96.82v-.78h5.81V57.12a2.35,2.35,0,0,0-.64-1.79,2.69,2.69,0,0,0-1.62-.6,9.5,9.5,0,0,0-1.2-.06c-.5,0-1.29,0-2.36.1Z"/><path class="cls-3" d="M109.61,65.57h-.91V54.05h.91Z"/><path class="cls-3" d="M118,65.57h-3.32l-1-11.52h.85l.58,7a7.7,7.7,0,0,0,1.26-.42,4.61,4.61,0,0,0,.92-.58,2.82,2.82,0,0,0,.69-.84,7.56,7.56,0,0,0,.74-2.84l.22-2.27h.82l-.23,2.27a11.94,11.94,0,0,1-.38,2.16,5,5,0,0,1-.76,1.55,3.66,3.66,0,0,1-1.26,1.08,7.34,7.34,0,0,1-1.91.65h0l.25,3H118A4.82,4.82,0,0,0,120.6,64a5.88,5.88,0,0,0,2-2.08,7.21,7.21,0,0,0,.94-3l.48-5h.82l-.49,5a8.36,8.36,0,0,1-1.25,3.67,8,8,0,0,1-1.26,1.49,5.35,5.35,0,0,1-1.7,1A5.67,5.67,0,0,1,118,65.57Z"/><path class="cls-3" d="M128.65,61.27V54.05h.91v6.2l-.83,1Z"/><path class="cls-3" d="M134.54,65.57V54.05l.81-.06c1.16-.08,2.07-.12,2.75-.12a13.6,13.6,0,0,1,1.61.07,4.57,4.57,0,0,1,1.14.3,2.81,2.81,0,0,1,.94.57,2.67,2.67,0,0,1,.6.94,3.82,3.82,0,0,1,.22,1.37v8.45h-.92V57.12a2.35,2.35,0,0,0-.62-1.79,2.7,2.7,0,0,0-1.63-.6,11.2,11.2,0,0,0-1.36-.06c-.62,0-1.49,0-2.63.14V65.57Z"/><path class="cls-3" d="M147.28,54h6.26v1l-1.71,6L151,65.57h-.93l.8-4.41,1.81-6.31h-6.32v-3.3h.91Z"/></g></g></svg>