<svg xmlns="http://www.w3.org/2000/svg" viewBox="0 0 99.94 56.11"><defs><style>.cls-1{fill:none;stroke:#3e8698;stroke-miterlimit:22.93;stroke-width:1.81px;fill-rule:evenodd;}</style></defs><title>cityIcon</title><g id="Layer_2" data-name="Layer 2"><g id="Layer_1-2" data-name="Layer 1"><path class="cls-1" d="M58.71,56.11v-9m37.08,9v-9m-41.22,0H99.94M58.71,44.27V32.89M95.79,44.27V32.89M58.71,35.7H95.79M58.71,40.18H95.79M38.44,43.63a20.23,20.23,0,0,1-2.17-.54A21.53,21.53,0,1,1,62.67,30m-11,12a21.4,21.4,0,0,1-9.18,2M34,35.55A15.59,15.59,0,0,1,42.48,6.87m0,29.51V56.11m-28-9.7A16,16,0,0,1,12.83,46,16.75,16.75,0,0,1,17.65,13.2a17.73,17.73,0,0,1,1.79.09m8.88,29.57A16.64,16.64,0,0,1,17.65,46.7m0-5.55v15M72.72,12.73h3.72M69.31,21H73m6.11-2.83h3.71m2.89,5.36h3.72M83.29,12.73H87m4.4,3.18h3.71M68.42,7.66h3.71"/></g></g></svg>