<svg xmlns="http://www.w3.org/2000/svg" viewBox="0 0 117.16 69.23"><defs><style>.cls-1,.cls-3{fill:#047fc3;}.cls-1,.cls-2{fill-rule:evenodd;}.cls-2{fill:#b3cc13;}</style></defs><title>logoIgal</title><g id="Layer_2" data-name="Layer 2"><g id="Layer_1-2" data-name="Layer 1"><path class="cls-1" d="M36.81,7.24h-4V3.34C32.83.93,32.05,0,30.48,0h-8a9.62,9.62,0,0,1,1.71.88h0l0,0a2,2,0,0,1,.37.33s0,0,0,0a4.29,4.29,0,0,1,.65,2.46l0,9.33h7.39c2.08,0,3.95.88,4,3.39,0,1.39-.9,2.65-2.28,4l-3.12,3c-2,1.9-2.46,3.29-2.46,4.73S29.35,31,30.13,31h9.5a7.21,7.21,0,0,1-1.94-1.13,2.56,2.56,0,0,1-.57-1.66v-.09a5.25,5.25,0,0,1,1.77-3.62l1.69-1.58c1.86-1.72,4.24-4.32,4.22-8.22C44.78,9.61,41.68,7.24,36.81,7.24Z"/><path class="cls-1" d="M70.69,11.42c0-3-.67-4.18-2.89-4.18H59.05l.07,0c.23.08.58.21,1,.39A5.2,5.2,0,0,1,63,12.31c0,.14,0,.26,0,.38L63,24l.31.19,4.42-2.6A5,5,0,0,0,70.71,17Z"/><path class="cls-1" d="M60.65,27.94A23,23,0,0,1,60,22.56l0-7.38C60,9,55.91,7,51.44,7a15.4,15.4,0,0,0-6.32,1.38c.51.49,1.79,2,2.2,5.4a2.77,2.77,0,0,1,2.36-1c1.26,0,2.57.88,2.58,3v2.65a2.76,2.76,0,0,1-.48,1.67,13.85,13.85,0,0,1-5.41,4.41L44.84,31a1.92,1.92,0,0,0,1.62.74c1.95,0,4.25-1.21,5.58-5.9.12-.51.6-.56.61.09,0,1.58.28,5.07,1.62,5.07H63.8a15,15,0,0,1-2-1.21A3.18,3.18,0,0,1,60.65,27.94Z"/><path class="cls-1" d="M110.07,14l-30.52,8.9c-2.85.64-4-1-3.92-4.42L75.84,11h0l.08-4.47s0,0,.15.45.73,4.6,4.59,4l.43-.09S115.17,1,116.28.67s.85.8.85.8l-2.73,8C113.48,12,112.43,13.37,110.07,14Z"/><path class="cls-1" d="M95.53,54.4,79,59.52c-2.9.73-4.09-.9-4-4.51l.22-7.75h0l.08-4.65s0,0,.15.47.75,4.76,4.68,4.08a3.15,3.15,0,0,0,.44-.11s20.36-6.39,21.52-6.78.87.82.87.82l-2.9,8.44C99.09,52.26,98,53.72,95.53,54.4Z"/><path class="cls-2" d="M102.94,33.84,79.28,41c-2.88.67-4.06-.94-4-4.47l.22-7.6h0l.08-4.56s0,0,.15.46.74,4.68,4.63,4.05l.44-.1s27.36-8.27,28.5-8.64.85.8.85.8l-2.81,8.2C106.43,31.79,105.36,33.2,102.94,33.84Z"/><path class="cls-3" d="M14.21,34.52A6.81,6.81,0,0,1,13,38.22a9.57,9.57,0,0,1-2.81,2.91l-.55-.44c.31-.54.73-1.34,1.25-2.4A3.31,3.31,0,0,0,11,35.82a4.55,4.55,0,0,1-.43-2c0-1.26.53-1.9,1.6-1.9a1.88,1.88,0,0,1,1.46.69A2.84,2.84,0,0,1,14.21,34.52Zm5.78,0a7.07,7.07,0,0,1-1.32,3.77,9.18,9.18,0,0,1-2.77,2.84l-.58-.44a16.55,16.55,0,0,0,1.3-2.4,3.7,3.7,0,0,0,.08-2.47,5,5,0,0,1-.37-2c0-1.26.51-1.9,1.54-1.9C19.28,31.9,20,32.78,20,34.52Z"/><path class="cls-3" d="M70.21,57.66l-.41.74H59.6v-.16l1-2.56h4.58V42.59a4.29,4.29,0,0,0-.84-2.76,2.37,2.37,0,0,0-1.89-.91,2.49,2.49,0,0,0-1.85.74H60.4v-3a6,6,0,0,1,2.74-.45q6.23,0,6.22,7.25V54.82A4.12,4.12,0,0,0,70.21,57.66Z"/><path class="cls-1" d="M8.66,65.34a3.54,3.54,0,0,1-1.07-2.7V38.46c0-1.45-.5-2.17-1.5-2.17H0a7.27,7.27,0,0,1,2.7,1.24l.1.08a2.65,2.65,0,0,1,.76,2.13V64.13c0,1.4.44,2.09,1.33,2.09h5.94A4.55,4.55,0,0,1,8.66,65.34Z"/><path class="cls-1" d="M57.13,37.47V36.29H39.33v.53l1,2.29H50.45a3.44,3.44,0,0,0-.72,2.58V56.55c0,1.23.26,1.85.8,1.85h5.95a4.29,4.29,0,0,1-2-.77,2.58,2.58,0,0,1-.73-2v-14Q53.76,38.58,57.13,37.47Z"/><path class="cls-3" d="M32.7,52.63,35,50.24q3.82-4,3.82-7.16,0-4-2.77-5.7a10.12,10.12,0,0,0-5.31-1.09H26.36V30.81c0-1.58-.67-2.36-2-2.36H18.54a7.48,7.48,0,0,1,2.36,1l.16.1.1.08a3.15,3.15,0,0,1,1.05,2.6V39H28.6q3.25,0,4.67,1.43a4.56,4.56,0,0,1,1.28,3.42q0,2.51-2.61,5.35l-3.25,3.54c-1.34,1.46-2,2.69-2,3.67,0,1.32.49,2,1.46,2H33a4.32,4.32,0,0,1-2.18-.88,1.61,1.61,0,0,1-.31-1.06v0C30.54,55.38,31.26,54.12,32.7,52.63Z"/><path class="cls-3" d="M14.86,69.14l0,.09h-.54c-.2,0-.29-.17-.29-.5v-5.5c0-.51-.15-.82-.45-.92l.05-.14h.49c.38,0,.57.28.57.83v5.53C14.65,68.87,14.72,69.08,14.86,69.14Z"/><path class="cls-3" d="M16.38,61.74a1.65,1.65,0,0,1-.25.83,1.78,1.78,0,0,1-.6.71l-.11-.11a2.07,2.07,0,0,0,.32-.55,1.46,1.46,0,0,0,0-.31,1,1,0,0,0,0-.34.82.82,0,0,1-.07-.39c0-.25.1-.37.32-.37S16.38,61.38,16.38,61.74Zm1.46,0a1.73,1.73,0,0,1-.24.83,1.88,1.88,0,0,1-.61.71l-.11-.11a2.81,2.81,0,0,0,.32-.55,1.53,1.53,0,0,0,.05-.31.91.91,0,0,0,0-.34,1.09,1.09,0,0,1-.07-.39c0-.25.11-.37.32-.37S17.84,61.38,17.84,61.74Z"/><path class="cls-3" d="M22.12,63.76a2.4,2.4,0,0,1-.78,1.66l-.68.69a1.47,1.47,0,0,0-.5.82v0a.34.34,0,0,0,.14.3l-.07.1h-.51c-.17,0-.25-.14-.25-.4a.79.79,0,0,1,.16-.48,5.07,5.07,0,0,1,.51-.59l.69-.71a1.88,1.88,0,0,0,.6-1.29,1.13,1.13,0,0,0-1.17-1.25h-1.9V60.8a.58.58,0,0,0-.18-.35l0-.1h.47q.33,0,.33.51v1.31H20.4C21.55,62.17,22.12,62.7,22.12,63.76Z"/><path class="cls-3" d="M26.72,62.37a1.18,1.18,0,0,0-.58.33,1,1,0,0,0-.16.63v3.35c0,.34.06.55.21.62l0,.08h-.56c-.19,0-.29-.17-.29-.49V63.38a1,1,0,0,1,.18-.72H22.82l-.23-.41v-.08h4.09Z"/><path class="cls-3" d="M29.67,67.28l0,.1H27.41v0l.23-.42h1.2V63.59c0-.67-.26-1-.76-1a.56.56,0,0,0-.44.2l-.05,0v-.51a1.31,1.31,0,0,1,.58-.1c.89,0,1.33.47,1.33,1.4v3.21A.66.66,0,0,0,29.67,67.28Z"/><path class="cls-3" d="M38.15,67.3l0,.08h-.58c-.18,0-.27-.17-.27-.49V64.13a1.46,1.46,0,0,0-.44-1.23,2.5,2.5,0,0,0-1.51-.35h0a4.51,4.51,0,0,0-.73.07V65.9a1.62,1.62,0,0,1-.41,1.19,1.22,1.22,0,0,1-.9.36,1,1,0,0,1-.55-.12v-.46l.09-.05a.38.38,0,0,0,.34.18c.49,0,.74-.32.74-1V62.72a6,6,0,0,0-.77.17v-.57a12,12,0,0,1,2.17-.2,4.22,4.22,0,0,1,1.9.32A1.58,1.58,0,0,1,38,64v2.71C38,67,38,67.24,38.15,67.3Z"/><path class="cls-3" d="M40.16,67.3l0,.08h-.55c-.2,0-.29-.17-.29-.49V63.23a1.28,1.28,0,0,0-.14-.68.59.59,0,0,0-.3-.22l0-.16h.47c.39,0,.59.28.59.83v3.68C40,67,40,67.23,40.16,67.3Z"/><path class="cls-3" d="M46,65.42a2,2,0,0,1-.54,1.51,1.9,1.9,0,0,1-1.42.54,3.57,3.57,0,0,1-1-.13v-.57l0,0a1.36,1.36,0,0,0,1,.33h0a1.22,1.22,0,0,0,.88-.33,1.53,1.53,0,0,0,.43-1.18V64q0-1.41-1.26-1.41a1.18,1.18,0,0,0-1,.49,4.44,4.44,0,0,0-.55,1.36l-.73,2.51a.46.46,0,0,0,.05.42l-.05,0h-.51c-.13,0-.19-.07-.19-.21A.71.71,0,0,1,41,67l.74-2.64-.71-1.65a.69.69,0,0,0-.42-.43l.05-.14h.53a.41.41,0,0,1,.38.26l.53,1.2a1.94,1.94,0,0,1,1.91-1.5A1.68,1.68,0,0,1,46,64Z"/><path class="cls-3" d="M49.07,62.32a2.51,2.51,0,0,0-.85.6,1.38,1.38,0,0,0-.3.94,4.57,4.57,0,0,0,0,.49l.3,2.37a.86.86,0,0,0,.27.57l0,.09h-.63c-.13,0-.2-.1-.22-.28l-.27-2.27a4.35,4.35,0,0,1-.06-.66,1.89,1.89,0,0,1,.15-.79,2.61,2.61,0,0,1,.51-.72H46.88l-.25-.39v-.1h2.44Z"/><path class="cls-3" d="M50.79,64.19a.72.72,0,0,1-.25.54l-.37.34-.06,0V63.15c0-.45-.15-.72-.45-.83l.06-.15h.57c.33,0,.5.23.5.69Z"/><path class="cls-3" d="M52.91,67.3l0,.08h-.54c-.2,0-.3-.17-.3-.49V63.23a1.29,1.29,0,0,0-.13-.68.58.58,0,0,0-.31-.22l.06-.16h.47c.39,0,.58.28.58.83v3.68C52.7,67,52.77,67.23,52.91,67.3Z"/><path class="cls-3" d="M60.46,67.3l0,.08h-.55c-.2,0-.3-.17-.3-.49V64.45c0-1.29-.58-1.94-1.75-1.94a1.84,1.84,0,0,0-1.47.53h-.07v-.66a3.53,3.53,0,0,1,1.6-.28c1.58,0,2.37.75,2.37,2.24v2.35C60.26,67,60.33,67.23,60.46,67.3Zm-3.28,0,0,.08h-.55c-.19,0-.29-.17-.29-.49V65.05a.55.55,0,0,1,.32-.49l.28-.17.07,0v2.25C57,67,57.05,67.23,57.18,67.3Z"/><path class="cls-3" d="M62.18,64.19a.69.69,0,0,1-.25.54l-.36.34-.06,0V63.15c0-.45-.15-.72-.45-.83l.06-.15h.57c.33,0,.49.23.49.69Z"/><path class="cls-3" d="M65.28,67.28l0,.1H63v0l.24-.42h1.19V63.59c0-.67-.25-1-.76-1a.54.54,0,0,0-.43.2l-.06,0v-.51a1.36,1.36,0,0,1,.59-.1c.88,0,1.33.47,1.33,1.4v3.21C65.11,67,65.16,67.19,65.28,67.28Z"/><path class="cls-3" d="M70.45,67.15l-.08.23H66v-.1l.25-.36h3a.89.89,0,0,1-.12-.52V64.35c0-1.23-.51-1.84-1.54-1.84a1.64,1.64,0,0,0-1.27.45h-.08v-.62a3.43,3.43,0,0,1,1.39-.24,2,2,0,0,1,2.18,2.24v2.14a.53.53,0,0,0,.31.53Z"/></g></g></svg>