<svg xmlns="http://www.w3.org/2000/svg" viewBox="0 0 98.73 78.07"><defs><style>.cls-1{fill:#1d1d1b;}</style></defs><title>logoOfek</title><g id="Layer_2" data-name="Layer 2"><g id="Layer_1-2" data-name="Layer 1"><path class="cls-1" d="M65.93,11.48V0H0V65.94H65.93V52.18a7,7,0,0,1-1.85,3.19,7.74,7.74,0,0,1-5.71,2.16,7.34,7.34,0,0,1-3-.53V51.79a4.78,4.78,0,0,0,2,.27,2.71,2.71,0,0,0,2.13-.92,3.18,3.18,0,0,0,.81-2.21V42.17H48.75V33.79h6v2.76H65.93V26.63q-.84,5.43-7,5.42H48.53V26.44H58a1.76,1.76,0,0,0,2-2V17.09H54.48v5.57H48.53V11.48ZM34.22,37.23h-6V20.74h6Zm2.19-5.31v-5A4.39,4.39,0,0,0,38,27.2c1.66,0,2.5-.88,2.5-2.68V17.09H28.09V11.48H46.43V25a7.63,7.63,0,0,1-1.89,5.53,6.76,6.76,0,0,1-5.1,2A8.06,8.06,0,0,1,36.41,31.92Zm10.3,16.25h-6V36.55h6Z"/><path class="cls-1" d="M.06,71.09v1H3.4v5.86h.94V72.07H5.4v-1Z"/><path class="cls-1" d="M6.28,71.09V75h1V71.09Z"/><path class="cls-1" d="M8.21,71.09v1H9.44v4a1.16,1.16,0,0,1-.28.8.93.93,0,0,1-.72.31,1.38,1.38,0,0,1-.65-.2v.92a1.6,1.6,0,0,0,.71.14c1.26,0,1.89-.74,1.89-2.2v-3.8h3.4v5.86h.93V71.09Z"/><path class="cls-1" d="M20.43,71.08v4A1.74,1.74,0,0,1,18.56,77h-.12l-1.85-5.94h-1L17.46,77h-2v.92h3.13a2.7,2.7,0,0,0,2-.77,3,3,0,0,0,.75-2.2V71.08Z"/><path class="cls-1" d="M25.08,71.09v6.84h6V71.09Zm5,5.85H26V72.07h4.08Z"/><path class="cls-1" d="M32,71.09v1h3.79v3.18a1.79,1.79,0,0,1-.39,1.19,1.49,1.49,0,0,1-1.2.52H32v1H34a2.74,2.74,0,0,0,1.9-.68,2.41,2.41,0,0,0,.76-1.9V71.09Z"/><path class="cls-1" d="M38.29,71.09V68.62h-.95v3.45h4V75.5a1.75,1.75,0,0,1-.43,1.2,1.35,1.35,0,0,1-1,.46,1.43,1.43,0,0,1-.78-.15v.92a1.47,1.47,0,0,0,.7.14,2.32,2.32,0,0,0,1.82-.72,2.66,2.66,0,0,0,.65-1.92V71.09Z"/><path class="cls-1" d="M45.89,71.09v6.84h6V71.09Zm5,5.85H46.83V72.07h4.08Z"/><path class="cls-1" d="M53,71.09V75h.95V71.09Z"/><path class="cls-1" d="M54.86,71.09v1h1.51V77H54.56v1h2.76V71.09Z"/><path class="cls-1" d="M58.51,71.09v6.84h1V71.09Z"/><path class="cls-1" d="M65.06,76.94V71.09H60.45v1h3.68v4.87H60.28v1H66v-1Z"/><path class="cls-1" d="M68.21,11.48V32.05h6V11.48Z"/><path class="cls-1" d="M91,23a6.05,6.05,0,0,0,3.35-1.86,5.49,5.49,0,0,0,1.47-4V11.48H90v6.08A1.38,1.38,0,0,1,88.77,19l-4.54-7.52H76.39V32.05H82.1V18h.13l10.14,18.8h6.36Z"/><path class="cls-1" d="M76.32,36.62V48.74h5.5V36.62Zm7.7,0v14.7H74.17V36.62H68.39V56.55H89.76V36.62Z"/></g></g></svg>