<svg xmlns="http://www.w3.org/2000/svg" viewBox="0 0 63.19 63.19"><defs><style>.cls-1{fill:none;stroke:#3d8597;stroke-miterlimit:10;stroke-width:2px;}</style></defs><title>payments</title><g id="Layer_2" data-name="Layer 2"><g id="Layer_1-2" data-name="Layer 1"><path class="cls-1" d="M57,11.52A20.15,20.15,0,0,1,62.19,24.8c0,13.14-13.7,23.79-30.59,23.79S1,37.94,1,24.8C1,13,12,3.23,26.5,1.34"/><path class="cls-1" d="M53.23,8A35.35,35.35,0,0,0,31.6,1V24.8Z"/><path class="cls-1" d="M57,11.52A20.15,20.15,0,0,1,62.19,24.8V38.4c0,13.14-13.7,23.79-30.59,23.79S1,51.54,1,38.4V24.8C1,13,12,3.23,26.5,1.34"/></g></g></svg>