<svg xmlns="http://www.w3.org/2000/svg" viewBox="0 0 36.68 42.08"><defs><style>.cls-1{fill:#a6b5bc;}</style></defs><title>pdfFile</title><g id="Layer_2" data-name="Layer 2"><g id="Layer_1-2" data-name="Layer 1"><path class="cls-1" d="M2.76,42.08A2.76,2.76,0,0,1,0,39.33V2.75A2.76,2.76,0,0,1,2.76,0H21.07a.42.42,0,0,1,.42.42V9.54a1.92,1.92,0,0,0,1.92,1.91h9.15a.42.42,0,0,1,.42.42v12a.42.42,0,0,1-.42.42H11.33a1.92,1.92,0,0,0-1.92,1.91v8a1.91,1.91,0,0,0,1.92,1.91H32.56a.42.42,0,0,1,.42.42v2.78a2.76,2.76,0,0,1-2.76,2.75ZM2.76.83A1.93,1.93,0,0,0,.83,2.75V39.33a1.93,1.93,0,0,0,1.93,1.92H30.22a1.92,1.92,0,0,0,1.92-1.92V37H11.33a2.76,2.76,0,0,1-2.76-2.75v-8a2.76,2.76,0,0,1,2.76-2.75H32.14V12.28H23.41a2.75,2.75,0,0,1-2.76-2.74V.83Z"/><path class="cls-1" d="M23.41,12.28a2.75,2.75,0,0,1-2.76-2.74V.42A.42.42,0,0,1,20.91,0a.45.45,0,0,1,.16,0,.42.42,0,0,1,.3.12L32.82,11.53a.44.44,0,0,1,.16.34.41.41,0,0,1-.42.41ZM21.49,9.54a1.92,1.92,0,0,0,1.92,1.91h8.14l-10.06-10Z"/><path class="cls-1" d="M11.33,37a2.76,2.76,0,0,1-2.76-2.75v-8a2.76,2.76,0,0,1,2.76-2.75H33.92a2.76,2.76,0,0,1,2.76,2.75v8A2.76,2.76,0,0,1,33.92,37Zm0-12.7a1.92,1.92,0,0,0-1.92,1.91v8a1.91,1.91,0,0,0,1.92,1.91H33.92a1.91,1.91,0,0,0,1.92-1.91v-8a1.92,1.92,0,0,0-1.92-1.91Z"/><path class="cls-1" d="M13.92,34.12a.41.41,0,0,1-.41-.41v-6a.41.41,0,0,1,.41-.42h2.57c.9,0,1.55.87,1.55,2.06s-.65,2.06-1.55,2.06H14.34v2.32A.41.41,0,0,1,13.92,34.12Zm.42-3.56h2.15a.56.56,0,0,0,.5-.32,1.8,1.8,0,0,0,.22-.91c0-.61-.25-1.23-.72-1.23H14.34Z"/><path class="cls-1" d="M20.66,34.12a.41.41,0,0,1-.42-.41v-6a.42.42,0,0,1,.42-.42h2.56c1.45,0,2.47,1.41,2.47,3.43A4.46,4.46,0,0,1,25.11,33a2.16,2.16,0,0,1-1.89,1.14Zm.42-.83h2.14a1.35,1.35,0,0,0,1.18-.74,3.67,3.67,0,0,0,.45-1.85c0-1.05-.43-2.6-1.63-2.6H21.08Z"/><path class="cls-1" d="M28.32,34.12a.41.41,0,0,1-.41-.41v-6a.41.41,0,0,1,.41-.42H32a.41.41,0,0,1,.41.42.41.41,0,0,1-.41.41H28.74v5.61A.41.41,0,0,1,28.32,34.12Z"/><path class="cls-1" d="M28.32,30.82a.41.41,0,0,1-.41-.42.41.41,0,0,1,.41-.41h2.54a.41.41,0,0,1,.41.41.41.41,0,0,1-.41.42Z"/></g></g></svg>