<svg xmlns="http://www.w3.org/2000/svg" viewBox="0 0 25.77 25.77"><defs><style>.cls-1{fill:#fff;}</style></defs><title>phone</title><g id="Layer_2" data-name="Layer 2"><g id="Layer_1-2" data-name="Layer 1"><path class="cls-1" d="M18,25.77c-6-.09-11.18-5.56-11.76-6.18S.09,13.81,0,7.84A9.73,9.73,0,0,1,3.27.51,1.86,1.86,0,0,1,4.56,0,1.83,1.83,0,0,1,5.87.54l4.75,4.75a1.88,1.88,0,0,1,.55,1.33,1.85,1.85,0,0,1-.58,1.32L9,9.45a2,2,0,0,0-.6,1.6A7.53,7.53,0,0,0,10.82,15c1.81,1.81,3.12,2.31,3.9,2.41h.22a1.9,1.9,0,0,0,1.39-.61l1.5-1.57a1.85,1.85,0,0,1,2.65,0l4.75,4.75a1.86,1.86,0,0,1,0,2.6,9.77,9.77,0,0,1-7.18,3.27ZM4.15,1.49A8.38,8.38,0,0,0,1.31,7.82C1.4,13.56,7.06,18.6,7.12,18.65s5.2,5.73,10.83,5.81a8.52,8.52,0,0,0,6.36-2.86.56.56,0,0,0,0-.76L19.42,16l-.27,0a.55.55,0,0,0-.38.18l-1.49,1.57a3.28,3.28,0,0,1-2.34,1l-.38,0A8.59,8.59,0,0,1,9.9,15.88a8.51,8.51,0,0,1-2.78-4.67,3.22,3.22,0,0,1,1-2.72L9.82,6.86l0-.29a.56.56,0,0,0-.16-.36L4.81,1.33l-.28,0H4.41Z"/></g></g></svg>