<svg xmlns="http://www.w3.org/2000/svg" viewBox="0 0 97.24 67.09"><defs><style>.cls-1{fill:#3d8597;}</style></defs><title>projectIcon </title><g id="Layer_2" data-name="Layer 2"><g id="Layer_1-2" data-name="Layer 1"><path class="cls-1" d="M56.84,61.29a.87.87,0,0,1-.87-.87V1.74H36.8V60.42a.87.87,0,1,1-1.74,0V.87A.87.87,0,0,1,35.93,0H56.84a.87.87,0,0,1,.87.87V60.42A.87.87,0,0,1,56.84,61.29Z"/><path class="cls-1" d="M23.68,61.29a.88.88,0,0,1-.88-.87V35.2H8.37V60.42a.87.87,0,1,1-1.74,0V34.33a.87.87,0,0,1,.87-.87H23.68a.87.87,0,0,1,.87.87V60.42A.87.87,0,0,1,23.68,61.29Z"/><path class="cls-1" d="M72.24,61.29a.88.88,0,0,1-.88-.87V32.32H61.6a.87.87,0,0,1,0-1.74H72.24a.87.87,0,0,1,.87.87v29A.87.87,0,0,1,72.24,61.29Z"/><path class="cls-1" d="M89.74,61.29a.87.87,0,0,1-.87-.87V11.71H69.34v14a.87.87,0,0,1-1.74,0V10.84a.87.87,0,0,1,.87-.87H89.74a.87.87,0,0,1,.87.87V60.42A.87.87,0,0,1,89.74,61.29Z"/><path class="cls-1" d="M18.58,29.88a.87.87,0,0,1-.87-.87V17.71a.87.87,0,0,1,.87-.87H30.24a.87.87,0,1,1,0,1.74H19.45V29A.87.87,0,0,1,18.58,29.88Z"/><path class="cls-1" d="M41.93,10.88a.87.87,0,0,1,0-1.74h1.33a.87.87,0,0,1,0,1.74Z"/><path class="cls-1" d="M49.51,10.88a.87.87,0,1,1,0-1.74h1.32a.87.87,0,1,1,0,1.74Z"/><path class="cls-1" d="M41.93,18a.87.87,0,0,1,0-1.74h1.33a.87.87,0,1,1,0,1.74Z"/><path class="cls-1" d="M49.51,18a.87.87,0,1,1,0-1.74h1.32a.87.87,0,1,1,0,1.74Z"/><path class="cls-1" d="M41.93,25.11a.87.87,0,1,1,0-1.74h1.33a.87.87,0,0,1,0,1.74Z"/><path class="cls-1" d="M49.51,25.11a.87.87,0,1,1,0-1.74h1.32a.87.87,0,1,1,0,1.74Z"/><path class="cls-1" d="M41.93,32.23a.87.87,0,1,1,0-1.74h1.33a.87.87,0,1,1,0,1.74Z"/><path class="cls-1" d="M49.51,32.23a.87.87,0,1,1,0-1.74h1.32a.87.87,0,1,1,0,1.74Z"/><path class="cls-1" d="M41.93,39.34a.87.87,0,0,1,0-1.74h1.33a.87.87,0,0,1,0,1.74Z"/><path class="cls-1" d="M49.51,39.34a.87.87,0,1,1,0-1.74h1.32a.87.87,0,1,1,0,1.74Z"/><path class="cls-1" d="M41.93,46.46a.88.88,0,0,1,0-1.75h1.33a.88.88,0,0,1,0,1.75Z"/><path class="cls-1" d="M49.51,46.46a.88.88,0,1,1,0-1.75h1.32a.88.88,0,1,1,0,1.75Z"/><path class="cls-1" d="M41.93,53.57a.87.87,0,0,1,0-1.74h1.33a.87.87,0,0,1,0,1.74Z"/><path class="cls-1" d="M49.51,53.57a.87.87,0,1,1,0-1.74h1.32a.87.87,0,1,1,0,1.74Z"/><path class="cls-1" d="M75.1,18.58a.87.87,0,0,1,0-1.74h7.73a.87.87,0,0,1,0,1.74Z"/><path class="cls-1" d="M75.1,24.23a.87.87,0,0,1,0-1.74h7.73a.87.87,0,1,1,0,1.74Z"/><path class="cls-1" d="M77.84,29.88a.87.87,0,1,1,0-1.74h5a.87.87,0,1,1,0,1.74Z"/><path class="cls-1" d="M77.84,35.53a.87.87,0,0,1,0-1.74h5a.87.87,0,0,1,0,1.74Z"/><path class="cls-1" d="M77.84,41.18a.87.87,0,1,1,0-1.74h5a.87.87,0,1,1,0,1.74Z"/><path class="cls-1" d="M77.84,46.83a.87.87,0,1,1,0-1.74h5a.87.87,0,0,1,0,1.74Z"/><path class="cls-1" d="M13.78,41.18a.87.87,0,0,1,0-1.74h3.69a.87.87,0,1,1,0,1.74Z"/><path class="cls-1" d="M13.78,46.83a.87.87,0,0,1,0-1.74h3.69a.87.87,0,0,1,0,1.74Z"/><path class="cls-1" d="M13.78,52.48a.87.87,0,0,1,0-1.74h3.69a.87.87,0,1,1,0,1.74Z"/><path class="cls-1" d="M.87,67.09a.87.87,0,0,1,0-1.74h95.5a.87.87,0,1,1,0,1.74Z"/></g></g></svg>